<?xml version="1.0" encoding="utf-8"?>
<!-- Generator: Adobe Illustrator 24.1.2, SVG Export Plug-In . SVG Version: 6.00 Build 0)  -->
<svg version="1.1" id="Layer_1" xmlns="http://www.w3.org/2000/svg" xmlns:xlink="http://www.w3.org/1999/xlink" x="0px" y="0px"
	 viewBox="0 0 207 222.9" style="enable-background:new 0 0 207 222.9;" xml:space="preserve">
<style type="text/css">
	.st0{fill:none;stroke:#FFFFFF;stroke-width:6;stroke-linecap:round;stroke-linejoin:round;}
	.st1{fill:none;stroke:#FFFFFF;stroke-width:4;stroke-linecap:round;stroke-linejoin:round;}
	
		.st2{opacity:0.24;fill:none;stroke:#FFFFFF;stroke-width:6;stroke-linecap:round;stroke-linejoin:round;stroke-opacity:0.24;enable-background:new    ;}
	
		.st3{opacity:0.24;fill:none;stroke:#FFFFFF;stroke-width:4;stroke-linecap:round;stroke-linejoin:round;stroke-opacity:0.24;enable-background:new    ;}
</style>
<desc>Drawing exported from Concepts: Smarter Sketching</desc>
<g id="Pen">
	<path id="STROKE_951ac4c4-0343-413b-81cc-1c1e9d4c9181" class="st0" d="M21.6,53.4l171.8-1.3"/>
	<path id="STROKE_03254580-3ab1-4e2a-bfa3-fd1171320e24" class="st0" d="M194.2,52.1l1.9,157.2"/>
	<path id="STROKE_868e6654-797b-4a02-aa64-da8101ba11df" class="st0" d="M19,52.3l1.4,159.3"/>
	<path id="STROKE_aa5d24ee-7066-4036-ac1a-f47d31e40ad4" class="st0" d="M23.1,210.9l171.8,0.5"/>
	<path id="STROKE_afb08579-2380-4927-a979-e6712eb543ec" class="st0" d="M56,66.9c-0.1,0-0.5-0.1-1.1-0.1c-0.6-0.1-1.5,0.1-2.7,0.5
		s-2.3,1-3.4,1.9c-1.1,0.8-2.1,1.8-3.1,2.9s-1.8,2.2-2.5,3.3C42.5,76.5,41.7,78,41,80c-0.8,2-1.4,3.9-1.9,5.7
		c-0.5,1.8-0.9,3.6-1.2,5.4s-0.4,3.1-0.5,4.1c-0.1,0.9-0.2,1.9-0.2,3c-0.1,1.1-0.1,2.5-0.1,4.3s0,3.2,0.1,4.2s0.2,2.1,0.3,3.3
		c0.2,1.2,0.3,2.2,0.5,2.9c0.2,0.7,0.6,2,1.4,3.7c0.8,1.7,1.4,3,1.8,4c0.5,0.9,1,1.8,1.6,2.7c0.6,0.9,1.7,1.9,3.2,3.1s3,2.2,4.4,3
		c1.4,0.8,2.6,1.4,3.3,1.7c0.8,0.3,1.7,0.7,2.8,1.1c1.1,0.4,2.4,0.7,4,0.9s2.8,0.4,3.8,0.5s2.5,0,4.6-0.3s3.9-0.6,5.4-0.9
		c1.4-0.3,2.8-0.6,4.1-0.9c1.3-0.3,2.8-0.7,4.4-1.4s3-1.4,4.2-2.1c1.2-0.8,2.3-1.4,3.2-2.1c1-0.6,1.8-1.1,2.4-1.5
		c0.7-0.4,1.5-1.1,2.6-2s2-2,2.9-3.2s1.5-2.2,2-3c0.4-0.9,0.8-1.7,1.1-2.6c0.3-0.9,0.6-2,0.9-3.3s0.5-2.7,0.6-4.3
		c0.1-1.5,0-3.2-0.2-5s-0.5-3.3-0.8-4.4s-0.6-2-0.9-2.8s-0.9-2-1.8-3.9s-1.5-3.3-1.9-4.2c-0.4-1-1.1-2.2-2-3.7s-1.8-2.8-2.7-3.9
		c-0.9-1.1-1.6-2-2.2-2.6s-1.2-1.2-2-1.9c-0.8-0.7-1.7-1.6-2.7-2.6s-2.2-2-3.4-3c-1.2-1-2.8-2-4.7-2.9c-1.9-1-3.4-1.7-4.7-2.2
		S70,62,68.5,61.7s-3.1-0.4-4.6-0.4c-1.6,0-3.1,0.2-4.4,0.5c-1.4,0.3-2.7,0.7-3.9,1.3c-1.2,0.5-2.2,1-3,1.5s-1.9,1-3.3,1.8"/>
	<path id="STROKE_8bfda0b3-7f68-4dd8-8351-d0b15ab63745" class="st0" d="M144.1,64.4c-0.2-0.1-0.7-0.1-1.4-0.3
		c-0.7-0.1-1.5-0.1-2.3,0s-1.6,0.3-2.5,0.6c-0.9,0.3-1.8,0.6-2.7,1c-1,0.4-1.9,0.9-2.7,1.6c-0.8,0.6-1.5,1.2-2.2,1.9
		c-0.6,0.6-1.3,1.2-2.1,1.8c-0.7,0.6-1.6,1.3-2.5,2.1c-0.9,0.8-2,2-3.3,3.5s-2.6,3.3-3.9,5.2c-1.3,2-2.3,3.5-3,4.7s-1.3,2.2-1.7,3.2
		c-0.4,1-0.9,2.1-1.3,3.2s-0.8,2.7-1.3,4.8c-0.4,2-0.7,3.8-0.9,5.4c-0.2,1.6-0.2,3.1-0.2,4.6s0.2,3,0.5,4.7c0.3,1.6,0.9,3.5,1.8,5.5
		s1.6,3.5,2.2,4.5s1.1,1.7,1.4,2.2c0.4,0.5,0.7,0.9,1,1.2c0.3,0.3,0.8,0.8,1.4,1.3c0.7,0.6,1.2,1.1,1.8,1.4c0.5,0.4,0.9,0.7,1.2,0.9
		c0.3,0.2,1,0.6,2.2,1.3c1.1,0.7,2.4,1.3,3.6,1.8c1.3,0.6,2.3,1,3.1,1.2s1.8,0.5,3.1,0.8s2.7,0.4,4.2,0.5s3.4-0.1,5.7-0.4
		c2.3-0.3,4-0.5,5.2-0.7s2.5-0.5,4-0.9c1.6-0.5,3.4-1.2,5.4-2.3s3.6-1.9,4.8-2.6c1.2-0.7,2.3-1.6,3.5-2.6s2-1.8,2.6-2.4
		s1-1.2,1.4-1.6c0.4-0.5,1-1.3,1.7-2.6c0.7-1.2,1.5-2.6,2.1-4c0.7-1.5,1.2-3.1,1.6-5c0.4-1.8,0.6-3.6,0.6-5.2s0-2.9,0-3.7
		s-0.2-2.2-0.4-3.9c-0.2-1.8-0.4-3.1-0.6-4.2c-0.2-1-0.5-2.2-1-3.6s-1-2.6-1.6-3.6c-0.5-1.1-1.2-2.2-2-3.4c-0.8-1.2-1.6-2.3-2.4-3.3
		c-0.8-1-1.8-2.1-2.8-3.3c-1-1.2-1.9-2.2-2.7-3.1c-0.8-0.8-2-1.7-3.5-2.7s-3-1.8-4.4-2.5c-1.5-0.7-2.9-1.2-4.3-1.7
		c-1.4-0.4-3-0.7-4.7-0.8c-1.7-0.1-4,0.1-7.1,0.5"/>
	<path id="STROKE_407e9e91-c268-4238-805e-e8707f7cdfad" class="st0" d="M54.3,96.9c0.3-0.1,1.5-0.4,3.7-1s3.9-1,5.2-1.2
		c1.3-0.3,2.2-0.5,2.7-0.5c0.5-0.1,1.2-0.2,2.1-0.3c0.9-0.1,1.8-0.3,2.8-0.4c1-0.2,1.8-0.3,2.5-0.5c-0.1-0.1-0.9-0.1-2.4,0.1
		s-2.7,0.4-3.7,0.6s-1.8,0.4-2.5,0.6s-1.6,0.5-2.8,0.9s-2.4,0.8-3.5,1.1c-1.2,0.3-2.1,0.6-2.8,0.7c-0.7,0.2-1.3,0.2-1.6,0.3
		c-0.4,0-0.7,0-0.9,0c-0.1,0,0.3-0.2,1.1-0.5s2.4-0.8,4.8-1.4c2.4-0.6,4.2-1,5.6-1.3c1.3-0.3,2.6-0.7,3.9-1.1
		c1.3-0.5,2.4-0.8,3.2-1.1c0.8-0.3,1.5-0.5,1.9-0.6s0.7-0.2,0.8-0.2c0.1,0,0.3-0.1,0.4-0.2c0.2-0.1,0.4-0.3,0.7-0.6"/>
	<path id="STROKE_c0ca28c0-3b7a-4cd9-bcba-be4539fc480d" class="st0" d="M61.7,79.9c0,0.3,0.1,1.2,0.2,2.8c0.1,1.6,0.3,4,0.5,7.2
		s0.4,5.7,0.6,7.3c0.2,1.6,0.3,2.8,0.5,3.6c0.1,0.8,0.3,1.5,0.5,2.2c0.2,0.7,0.6,2.2,1.2,4.5c-0.1-0.1-0.3-0.7-0.6-1.6
		c-0.3-0.9-0.5-1.7-0.7-2.5c-0.2-0.7-0.3-1.4-0.4-2c-0.1-0.6-0.2-1.7-0.4-3.3c-0.2-1.6-0.3-3.2-0.3-4.9c-0.1-1.7-0.2-3.3-0.3-4.9
		c-0.2-1.6-0.4-3-0.7-4.2s-0.8-2.2-1.5-2.9C60,81.4,60,81.4,60,81.4c-0.1,0.1,0,0.8,0.2,2.1c0.2,1.3,0.4,2.5,0.7,3.7
		s0.5,2.9,0.7,5.1c0.2,2.3,0.4,4.4,0.6,6.5c0.2,2.1,0.5,4,0.8,5.6s0.6,2.9,0.9,3.7c0-0.1-0.1-1.1-0.3-3.3c-0.2-2.1-0.4-4.4-0.5-6.7
		c0-2.3-0.1-4.1-0.1-5.3s-0.1-2.5-0.1-3.7c-0.1-1.2-0.1-2-0.2-2.4c-0.1-0.4-0.1-0.7-0.1-1c0-0.2,0-0.5-0.1-0.8c0,0,0.1,0.2,0.3,0.6
		c0.2,0.5,0.6,2,1.2,4.7s1,4.7,1.2,6.2c0.3,1.5,0.4,2.7,0.5,3.5s0.4,3,1,6.7"/>
	<path id="STROKE_3fc517fa-1847-439f-8bde-6b45bcac4d87" class="st0" d="M135.3,95.5c0.2,0.1,1.6,0.2,4.2,0.4c2.6,0.2,3.8,0.2,3.6,0
		s-2.6-0.6-7-1.2c0,0,1.2,0.1,3.5,0.5s4.2,0.7,5.6,0.9c1.4,0.2,2.4,0.3,3,0.4s1.1,0.1,1.5,0c0.1-0.2-0.8-0.4-2.6-0.8
		c-1.8-0.3-3.4-0.6-4.7-0.7s-2.3-0.2-2.9-0.3c-0.6-0.1-1.2-0.1-1.8-0.2s-1.4,0-2.4,0c0,0,1.8,0.1,5.3,0.6c3.5,0.4,7,1,10.6,1.6
		c0-0.1-0.7-0.1-2-0.1c-1.4,0-3.1-0.1-5.3-0.3c-2.2-0.2-4-0.3-5.4-0.4s-2.5-0.1-3.3-0.1s-1.4-0.1-2-0.2c-0.5-0.1-0.9-0.3-1.1-0.5
		l0.1-0.1c0.2-0.1,1.1-0.1,2.5,0c1.5,0.1,2.9,0.2,4.4,0.3c1.5,0.1,2.6,0.1,3.4,0.2c0.8,0,2.5,0.2,5.3,0.6c2.7,0.4,6.1,1,10.1,1.8"/>
	<path id="STROKE_f1faf0e6-bc32-4dd2-86e2-4cf55bc6b096" class="st1" d="M5.4,13.4c0,0.1,0,1.5,0.1,4.2c0.1,2.8,0.3,5.7,0.5,9
		c0.2,3.2,0.4,5.5,0.5,6.8C6.6,34.8,6.7,36,6.8,37c0.1,1.1,0.3,4.3,0.6,9.7c0.3,5.4,0.5,9.6,0.6,12.6c0.1,3,0.2,5.7,0.3,8
		s0.2,4,0.2,5s0.1,2.6,0.3,4.8c0.2,2.2,0.5,5.1,0.9,8.8c0.5,3.7,0.8,6.5,1,8.4s0.4,3.6,0.7,5.2c0.2,1.5,0.4,3.2,0.6,5
		c0.2,1.8,0.6,4.7,1.1,8.7c0.3-0.1,2.3,0.1,6.1,0.5"/>
	<path id="STROKE_d4762959-acff-4d3d-bae2-4377f007fba6" class="st1" d="M12.9,15c-0.1,0.2,0.7,8.2,2.4,24.2"/>
	<path id="STROKE_d3f08f10-8a6d-4ac0-8a81-dedfd6587d67" class="st1" d="M14,37.1c0,0.1,0.2,1.3,0.7,3.5c0.4,2.2,0.9,5.7,1.5,10.3"
		/>
	<path id="STROKE_5e27675b-a0d2-4a80-999f-826b40b3c3ba" class="st1" d="M5.5,14c0,0,0.8,0.1,2.2,0.5c1.4,0.3,3.2,0.5,5.3,0.7"/>
	<path id="STROKE_f240b896-5c15-475b-bb4c-2eccc71a41ad" class="st1" d="M5.6,14.2c-0.1-0.2-0.3-0.5-0.4-0.9
		c-0.2-0.4-0.3-0.9-0.4-1.4S4.7,10.7,4.7,10s0.1-1.3,0.4-1.9c0.2-0.5,0.5-1,0.9-1.4S6.9,6,7.7,5.8C8.5,5.6,9.2,5.5,10,5.5
		c0.7,0,1.4,0.2,1.9,0.4C12.5,6.1,13,6.5,13.5,7s0.9,0.9,1,1.2c0.1,0.3,0.3,0.6,0.4,1.1c0.1,0.5,0.2,1,0.2,1.6s-0.1,1.2-0.2,1.8
		c-0.2,0.6-0.3,1-0.6,1.3c-0.2,0.3-0.4,0.5-0.4,0.6c-0.1,0.1-0.1,0.1-0.2,0.2c-0.1,0.1-0.3,0.2-0.8,0.3c-0.5,0.2-2.1,0.2-5,0.2"/>
	<path id="STROKE_9b4871f3-d5be-4ac5-9c75-d2ff8c9cf411" class="st1" d="M193,32.4c0,0.4,0,1.3,0.1,2.8s0.1,4.6,0,9.2
		c0,4.6-0.1,8.3,0,10.9c0,2.7,0.1,4.5,0.1,5.5c0.1,1,0.1,2.4,0.2,4.2c0.1,1.8,0.1,5,0.3,9.7c0.1,4.7,0.2,8.5,0.3,11.5
		s0.2,5.8,0.4,8.5"/>
	<path id="STROKE_f876e79d-a5ee-47dd-97ae-b768e23a11f9" class="st1" d="M193.1,15.6c0,0.1,0,1.2,0,3.3s0,4.8,0,8.2
		c0,3.3,0.1,6.1,0.2,8.2c0.1,2.1,0.2,4.4,0.3,6.7"/>
	<path id="STROKE_637dec22-61bf-4714-83d6-a68b565f51d8" class="st1" d="M191.7,13.6c0.3,0.2,2.9,0.6,7.9,1.2"/>
	<path id="STROKE_b8ab70ba-4ce5-48a3-ad47-dce22edf31d6" class="st1" d="M199.6,15.5c0,0.1,0,2.7-0.1,7.9s-0.1,9.7-0.1,13.5
		c0,3.8,0.1,7.9,0.3,12.3s0.3,7.7,0.4,9.9c0.1,2.1,0.2,4.8,0.2,7.9c0,3.1,0,5.6,0,7.5s-0.1,3.2,0,4s0.1,1.9,0.2,3.5
		c0.1,1.5,0.2,3.1,0.3,4.9s0.2,3.5,0.1,5.1c0,1.6-0.3,4.4-0.9,8.4"/>
	<path id="STROKE_bc74adbc-3674-4203-92b4-aee3731002cc" class="st0" d="M192.8,102.1c0.3-0.2,2.9-1.3,7.7-3.4"/>
	<path id="STROKE_e32f1d83-008d-4e26-a08d-92e8b2c33292" class="st1" d="M193,5.5c-0.2,0-0.4,0.2-0.7,0.5s-0.7,0.8-1.1,1.3
		c-0.4,0.6-0.6,1-0.6,1.4c-0.1,0.4-0.1,0.8,0,1.2c0,0.5,0.2,1,0.4,1.6c0.3,0.6,0.6,1.1,1.2,1.7c0.5,0.5,1.3,0.9,2.2,1.3
		c1,0.3,1.8,0.6,2.5,0.6c0.7,0.1,1.4,0,2.1-0.2c0.7-0.2,1.3-0.4,1.8-0.8c0.5-0.3,0.9-0.7,1.3-1.2c0.4-0.5,0.7-1.2,0.9-2
		c0.2-0.9,0.3-1.6,0.3-2.2c0-0.6-0.1-1.2-0.3-1.8s-0.5-1.2-0.9-1.7s-0.8-1-1.3-1.3c-0.4-0.3-1.2-0.4-2.2-0.4s-1.9,0.2-2.6,0.4
		c-0.7,0.2-1.4,0.6-2.1,1.1c-0.7,0.5-1.3,1.1-2,1.9"/>
	<path id="STROKE_d477dee9-4469-4f6f-a40f-f073acd1d454" class="st0" d="M151.5,97c0,0-0.5-0.1-1.2-0.1c-0.8-0.1-1.5-0.1-2.3-0.3
		c-0.8-0.1-1.6-0.2-2.6-0.2c-0.9,0-1.7,0-2.5,0c-0.7,0-1.5,0-2.4-0.1c-0.9,0-2.2-0.1-3.8-0.1s-2.9,0-3.9,0s-1.9,0.1-2.8,0.2
		c-0.8,0.1-1.5,0.2-1.9,0.3c-0.4,0.1-0.8,0.2-1.1,0.3c0,0.1,0.6,0.3,1.9,0.4c1.3,0.2,2.6,0.3,4,0.4s2.8,0.2,4.1,0.3
		c1.3,0.1,2.5,0.2,3.6,0.3c1.1,0.1,2.2,0.3,3.3,0.4c1.1,0.2,2.2,0.3,3.1,0.3c0.9,0.1,2.3,0.3,4.2,0.8c0,0-0.2-0.1-0.6-0.2
		c-0.4-0.1-0.8-0.1-1.1-0.2c-0.3,0-1.2-0.1-2.8-0.2c-1.5-0.1-2.7-0.2-3.5-0.3c-0.8-0.1-1.8-0.1-3-0.1c-1.1,0-2.2,0-3.1-0.1
		c-0.9,0-1.9,0-3.1,0c-1.2,0-2.1,0.1-2.6,0.1c-0.6,0-1.1,0.1-1.6,0.1s-0.9,0.1-1.1,0.3c0.1,0.1,0.1,0.2,0.1,0.2s0.2,0.1,0.5,0.2
		s0.8,0.3,1.4,0.3c0.6,0.1,1.3,0.1,2.1,0.2c0.8,0,1.9,0.1,3.2,0.1c1.4,0.1,2.4,0.1,3.2,0.1s1.5,0,2.2,0.1c0.7,0,1.2,0,1.6,0.1
		c0.4,0,0.9,0,1.5,0s1.8,0,3.4,0c1.6,0,2.9,0,4,0.1c1,0,2.1-0.1,3.3-0.3c0.1-0.1-0.6-0.2-1.8-0.5c-1.3-0.3-2.6-0.4-4-0.5
		c-1.3-0.1-2.4-0.2-3.3-0.3c-0.9-0.1-1.7-0.1-2.4-0.2c-0.8-0.1-1.5-0.1-2.2-0.2c-0.7,0-1.7-0.1-3-0.1c-1.3-0.1-2.4-0.1-3.2-0.1
		s-1.4,0.1-1.8,0.3c0,0.1,0.2,0.1,0.5,0.2s0.9,0.2,1.7,0.2c0.8,0.1,2.4,0.1,4.8,0.1s4.3,0.1,5.6,0.1s2.5,0.1,3.6,0.2
		c1,0.1,2,0.2,2.8,0.2s1.7,0.1,2.6,0.1c0.9,0,2.1,0,3.5,0c0-0.1-0.4-0.2-1.2-0.4c-0.8-0.2-1.9-0.4-3.2-0.5c-1.3-0.2-2.9-0.3-4.8-0.5
		s-3.4-0.3-4.5-0.4s-2.8-0.2-5.1-0.4c-2.3-0.2-4.6-0.2-6.8-0.2c0,0.1,1,0.3,3.2,0.4c2.1,0.1,3.9,0.2,5.4,0.2s2.7,0.1,3.7,0.1
		s2.1,0.1,3.1,0.2c1.1,0.1,2.3,0.2,3.7,0.2c1.4,0.1,2.5,0.1,3.4,0.2c0.9,0,2.1,0.2,3.6,0.4c0,0-0.4-0.2-1.1-0.4
		c-0.7-0.2-1.4-0.4-2.3-0.5c-0.9-0.1-2.1-0.3-3.9-0.5c-1.7-0.2-3.3-0.4-4.8-0.6c-1.5-0.1-2.5-0.2-3.2-0.3c-0.7-0.1-1.4-0.1-1.9-0.2
		c-0.6-0.1-1.6-0.2-3.2-0.2c-1.5-0.1-2.8-0.1-3.6-0.2c-0.9,0-1.7,0-2.4,0s-1.1,0.1-1.3,0.2c0,0.1,0.5,0.3,1.6,0.7
		c1,0.3,2.2,0.6,3.6,0.7c1.4,0.1,2.4,0.2,3.3,0.3c0.8,0.1,1.9,0.2,3.2,0.4c1.3,0.1,2.4,0.2,3.1,0.3c0.8,0.1,1.9,0.2,3.5,0.5
		s3.1,0.5,4.4,0.7c1.4,0.2,2.6,0.3,3.6,0.3c0-0.1-0.5-0.3-1.5-0.6c-1-0.3-2.2-0.5-3.7-0.8s-2.6-0.4-3.4-0.5c-0.8-0.1-1.5-0.2-2-0.2
		c-0.5-0.1-1.5-0.2-3.1-0.3c-1.6-0.2-2.8-0.3-3.8-0.4s-1.7-0.1-2.3-0.2c-0.5,0-1.4-0.1-2.5-0.1s-2-0.1-2.6,0c-0.6,0-1.1,0.1-1.5,0.3
		c0,0.1,0.5,0.4,1.5,0.7c1,0.3,2.2,0.6,3.5,0.8c1.3,0.2,2.5,0.3,3.8,0.5c1.2,0.1,2.1,0.3,2.8,0.4c0.6,0.1,1.3,0.2,1.9,0.3
		c0.6,0.1,4.2,0.6,10.9,1.5c0,0-0.5-0.2-1.4-0.5c-1-0.3-2-0.6-3.1-0.8c-1.1-0.2-2.1-0.4-2.9-0.5c-0.8-0.1-1.8-0.3-3.1-0.5
		s-2.3-0.4-3-0.5s-2-0.3-3.9-0.6c-1.9-0.3-3.4-0.5-4.7-0.7s-2.4-0.2-3.2-0.2c0.1,0.1,1,0.1,2.8,0.3c1.8,0.1,3.2,0.2,4.3,0.2
		s2.5,0.1,4.4,0.1c1.8,0.1,4,0.2,6.5,0.4c2.5,0.2,4.5,0.3,6,0.4s3.3,0.4,5.3,0.8l0.3,0.1"/>
	<path id="STROKE_40be8f67-b650-4466-b521-294c7912a0e4" class="st0" d="M75.4,92.8c-0.1,0-0.4-0.1-1-0.1c-0.6-0.1-1.1-0.1-1.5,0
		c-0.4,0-1,0.1-1.7,0.2s-1.4,0.2-2,0.3c-0.6,0.1-1.4,0.2-2.5,0.4c-1.1,0.2-2.3,0.3-3.7,0.6c-1.3,0.2-2.7,0.5-4,0.8
		c-1.4,0.3-2.4,0.5-3.1,0.8c-0.7,0.2-1.1,0.4-1.3,0.6c0,0.1,0.3,0.2,0.8,0.3s1.3,0.1,2.6,0c1.2-0.1,2.2-0.2,3-0.3
		c0.7-0.1,1.5-0.2,2.3-0.3c0.8-0.1,1.7-0.2,2.7-0.4c1-0.2,2.2-0.4,3.7-0.6c1.4-0.2,3.5-0.6,6.2-1.1c0,0-0.5,0.1-1.4,0.3
		c-0.9,0.2-1.9,0.4-3,0.5s-2,0.3-2.6,0.4c-0.7,0.1-1.1,0.2-1.4,0.3c-0.3,0.1-0.9,0.2-1.9,0.3c-1,0.1-2.5,0.5-4.6,1
		c-2,0.5-3.8,1-5.2,1.4C54,98.6,53,99,52.3,99.4c0,0.1,0.3,0.3,0.7,0.3c0.5,0.1,0.9,0.1,1.3,0c0.4,0,0.7-0.1,1.1-0.2
		c0.3-0.1,1.1-0.2,2.4-0.4c1.3-0.2,2.9-0.5,5-0.8c2.1-0.4,3.9-0.7,5.5-1c1.6-0.3,3.1-0.5,4.7-0.9s3.1-0.6,4.7-0.9c0,0-0.4,0-1.2,0
		c-0.8,0-2.1,0.2-4,0.4c-1.9,0.2-3.5,0.4-4.7,0.5c-1.2,0.2-2.2,0.3-2.8,0.3c-0.6,0.1-1.4,0.2-2.5,0.3c-1,0.2-2,0.3-2.9,0.5
		s-1.5,0.3-2,0.4s-1,0.2-1.5,0.4c-0.5,0.1-0.9,0.2-1.2,0.3c-0.3,0.1-1,0.4-2,0.9c0,0.1,0.1,0.1,0.4,0.2c0.3,0.1,0.7,0.1,1.2,0
		s1.6-0.2,3.2-0.5c1.6-0.3,3.7-0.6,6.2-1.2c2.6-0.5,4.6-0.9,5.9-1.2c1.4-0.3,2.4-0.5,3-0.7s1.1-0.3,1.6-0.4s1.2-0.3,2-0.4
		s1.6-0.3,2.2-0.5c0.7-0.2,1.2-0.4,1.5-0.6c0-0.1-0.4-0.1-1.4-0.2c-1,0-2.5,0.1-4.7,0.4s-3.8,0.5-4.9,0.7C68,95.5,67,95.7,66,95.9
		c-1,0.2-1.8,0.3-2.4,0.4s-1.7,0.3-3.1,0.6c-1.5,0.3-2.6,0.6-3.3,0.8c-0.7,0.2-1.2,0.4-1.5,0.5s-0.4,0.3-0.5,0.4
		c0,0,0.1,0.1,0.3,0.1s0.6,0,1.3-0.1s1.9-0.3,3.7-0.6c1.8-0.3,3.3-0.6,4.4-0.8c1.1-0.2,1.9-0.4,2.4-0.5s1.9-0.4,4.1-0.7
		c2.2-0.4,3.9-0.7,5.1-0.9c1.2-0.2,2.1-0.3,2.6-0.4s1.4-0.3,2.5-0.4c1.1-0.2,2-0.4,2.8-0.5c0.7-0.1,1.2-0.2,1.5-0.3
		c0.3-0.1,0.5-0.2,0.7-0.3c0,0-0.1-0.1-0.4-0.1s-0.8,0-1.5,0s-2.2,0.2-4.5,0.5s-4.1,0.5-5.3,0.7c-1.2,0.2-2.5,0.4-3.7,0.6
		s-2.1,0.3-2.7,0.5c-0.6,0.1-1.2,0.2-1.8,0.3c-0.6,0.1-1.9,0.3-3.9,0.6c-2,0.3-3.7,0.7-5.1,0.9c-1.4,0.3-2.4,0.5-3.1,0.6
		c-0.7,0.1-1.2,0.3-1.6,0.4c-0.4,0.1-1,0.3-1.8,0.6c0,0,0.7-0.1,2-0.4s2.7-0.6,3.9-1c1.3-0.4,2.3-0.7,3-0.8c0.7-0.2,1.5-0.3,2.3-0.5
		s2.2-0.5,4.1-0.9s4-0.9,6.2-1.4s3.8-0.9,5-1.1c1.1-0.3,2-0.4,2.7-0.5s1.4-0.2,1.9-0.4c0-0.1-0.6-0.1-1.9,0S78,92,76.9,92.2
		c-1.1,0.2-1.9,0.3-2.4,0.3c-0.5,0.1-1,0.1-1.4,0.2c-0.5,0.1-1.5,0.3-3.2,0.6s-3,0.6-4,0.7c-1,0.2-1.8,0.3-2.4,0.4s-1.6,0.4-3.2,0.8
		c-1.5,0.4-2.8,0.7-3.6,0.9c-0.9,0.2-1.5,0.4-2,0.6s-0.8,0.4-0.9,0.7c0,0,0,0,0.1,0.1c0.1,0,0.4,0,1.1,0c0.7,0,1.6-0.2,2.8-0.5
		s2.4-0.6,3.5-0.9c1.2-0.3,2.2-0.5,3-0.7c0.8-0.2,1.4-0.3,1.8-0.4s1.2-0.3,2.3-0.5c1.1-0.2,2.3-0.4,3.8-0.7s2.8-0.5,4.1-0.7
		c1.3-0.3,3.1-0.6,5.4-0.9l0.2-0.1"/>
	<path id="STROKE_d6be3d77-1901-4a09-98d1-c0f551743775" class="st0" d="M63.4,80.2c-0.1,0.2-0.1,0.5-0.1,1s0,1.3,0.1,2.3
		s0.1,1.8,0.2,2.3c0,0.5,0.1,1.2,0.2,2.1c0.1,0.9,0.2,2.9,0.5,5.9c0.2,3.1,0.5,5.5,0.7,7.4s0.3,3.2,0.4,4s0.2,1.6,0.3,2.3
		c0.1,0.7,0.3,1.3,0.3,1.6c0.1,0.3,0.2,0.7,0.3,1c0.1,0.4,0.3,0.7,0.5,0.9c0.1,0,0-0.7-0.4-2.1s-0.7-2.6-1-3.7s-0.5-1.9-0.7-2.6
		s-0.3-1.5-0.5-2.4s-0.4-2.2-0.7-3.7s-0.5-3.2-0.7-5.1s-0.3-3.4-0.3-4.6s-0.1-2.8-0.1-4.7c0,0,0.2,2,0.7,6.1c0.4,4,0.8,7.2,1,9.6
		c0.3,2.3,0.5,4.1,0.6,5.2c0.2,1.1,0.3,1.9,0.4,2.4s0.3,1.3,0.5,2.3c0.3,1,0.5,1.9,0.7,2.5s0.6,1.3,1.1,1.9c0.1,0-0.1-0.6-0.3-1.6
		c-0.3-1-0.6-2.2-1-3.6s-0.7-2.5-0.9-3.3c-0.2-0.8-0.4-1.9-0.7-3.4c-0.3-1.5-0.6-3.4-0.9-5.6c-0.3-2.3-0.5-4.3-0.6-6.3
		c-0.1-1.9-0.2-3.8-0.4-5.8c0,0,0,1.1,0.1,3.3c0.1,2.2,0.2,3.9,0.3,5.3c0.1,1.3,0.2,2.4,0.2,3.1c0.1,0.7,0.1,1.5,0.2,2.2
		c0.1,0.7,0.1,1.4,0.2,2.1c0.1,0.7,0.2,1.8,0.4,3.4c0.2,1.6,0.4,3.1,0.7,4.6s0.5,2.8,0.9,4c0.3,1.2,0.8,2.6,1.5,4.2
		c0,0-0.1-0.3-0.4-0.8s-0.6-1.4-1-2.7c-0.4-1.2-0.8-3-1.2-5.4c-0.4-2.3-0.8-4.6-1.2-6.8c-0.4-2.2-0.7-4.6-0.9-7.2
		c-0.3-2.6-0.4-5.5-0.6-8.8c0,0,0.2,2.1,0.7,6.3c0.5,4.2,0.9,7.5,1.2,9.9s0.5,4.2,0.8,5.5c0.2,1.3,0.4,2.3,0.5,3
		c0.1,0.6,0.3,1.2,0.4,1.7s0.2,0.9,0.3,1.3c0.1,0.4,0.8,1.7,2.1,4.1l0.1,0.1"/>
	<path id="STROKE_5fcc94cf-30f7-4bd5-8eb0-e25ed4334e68" class="st0" d="M57.4,158.6c0.1,0,1-0.2,2.6-0.5s3.3-0.6,5-0.9
		c1.7-0.3,3.8-0.5,6.4-0.6c2.6-0.2,5.1-0.4,7.6-0.6c2.5-0.3,4.7-0.5,6.6-0.8s4.7-0.5,8.5-0.6s6.7-0.2,8.6-0.3c1.9,0,3.3-0.1,4.2-0.1
		c0.9,0,1.7-0.1,2.6-0.1c0.9-0.1,2-0.1,3.3-0.2c1.3-0.1,2.5-0.1,3.5-0.2c1-0.1,1.8-0.1,2.4-0.2c0.6-0.1,2.8-0.1,6.4-0.1s6.7,0,9.2,0
		c2.5,0.1,4.3,0.1,5.5,0.1s2.5,0,3.9,0s2.5,0,3.3,0s1.6,0,2.4,0c0.8,0,4.2-0.1,10.4-0.4"/>
	<path id="STROKE_093e0859-8f47-4813-b202-72da507c37e0" class="st0" d="M56,159.5c-0.7,0.2-1.1,0.3-1.4,0.4
		c-0.2,0.1-0.7,0.5-1.3,1.1s-1,1.1-1.3,1.4c-0.3,0.4-0.5,0.7-0.7,1.1c-0.2,0.4-0.5,0.9-0.8,1.6s-0.5,1.3-0.7,1.9
		c-0.1,0.5-0.2,1.1-0.1,1.7c0,0.6,0.2,1.2,0.4,1.8s0.5,1.2,0.7,1.8s0.4,1,0.6,1.3c0.2,0.3,0.3,0.6,0.5,0.7c0.1,0.2,0.3,0.3,0.5,0.5
		s0.5,0.4,0.8,0.6c0.3,0.2,1,0.5,2.1,0.9s2,0.6,2.7,0.7c0.7,0.1,1.8,0.3,3.3,0.4c1.5,0.2,3,0.3,4.5,0.5c1.5,0.1,3.7,0.2,6.4,0.3
		c2.7,0,5.1,0,7.2,0c2.1-0.1,4.1-0.1,6-0.1s3.4,0,4.5,0s2.6,0,4.5,0s3.8,0,5.6-0.2c1.8-0.1,3.5-0.4,5.3-0.7c1.7-0.3,3.6-0.7,5.7-1
		c2-0.4,3.8-0.6,5.4-0.8c1.5-0.2,2.8-0.3,3.8-0.3s1.8,0,2.4,0s1.7,0,3.2-0.1s2.7-0.1,3.6-0.3c0.9-0.1,2-0.3,3.2-0.4
		c1.2-0.2,2.6-0.4,4.1-0.6c1.5-0.2,3.5-0.4,6.2-0.5c2.6-0.1,4.7-0.2,6-0.3c1.4-0.1,2.4-0.1,3-0.2c0.6-0.1,1.8-0.2,3.3-0.4
		s2.8-0.4,3.8-0.6c1-0.2,2.5-0.6,4.6-1.3"/>
	<path id="STROKE_167b539b-1f6b-45e3-88c9-90f40d7e1af3" class="st0" d="M159.2,152.5c0.7,0,1.4,0.1,2.2,0.4
		c0.8,0.2,1.6,0.6,2.3,1.1c0.8,0.5,1.3,1,1.7,1.3c0.4,0.4,0.8,0.9,1.2,1.7s0.8,1.5,1,2.1c0.3,0.6,0.4,1.1,0.6,1.6
		c0.1,0.4,0.1,1.1,0,2.2s-0.3,1.8-0.5,2.4s-0.4,1-0.6,1.4c-0.2,0.4-0.3,0.6-0.5,0.8c-0.1,0.2-0.3,0.4-0.5,0.7s-0.5,0.5-0.7,0.8
		s-0.4,0.4-0.6,0.6c-0.1,0.1-0.2,0.2-0.3,0.2c0,0-0.2,0.2-0.6,0.5c-0.4,0.3-0.7,0.5-1,0.7s-0.7,0.3-1.3,0.5s-1.4,0.4-2.3,0.6"/>
	<path id="STROKE_e710ed2b-9282-441d-a099-bd73b356a63c" class="st0" d="M70.2,163.1c0,0.3,0.1,1.1,0.2,2.3s0.2,2.2,0.3,2.7
		c0.1,0.6,0.2,1.5,0.3,2.7c0.1,1.2,0.2,2.3,0.3,3.1s0.3,1.8,0.5,2.7"/>
	<path id="STROKE_ca810943-aa2b-43c3-a5ac-e23588c2635a" class="st0" d="M102.7,160.8c0,0.4,0.1,5.4,0.2,15.1"/>
	<path id="STROKE_090309e8-d923-48de-acba-294a640696fe" class="st0" d="M127.6,158c0,0.1,0.2,0.9,0.6,2.5c0.4,1.6,0.8,3.1,1.2,4.4
		c0.4,1.3,0.8,2.7,1.2,4c0.3,1.3,0.8,3.1,1.3,5.2"/>
	<path id="STROKE_769a90a7-451a-4ba5-a535-b1b02a6963e1" class="st0" d="M152.5,157.3c0,0.1,0,0.9,0.1,2.4s0.2,2.8,0.4,4.2
		c0.2,1.3,0.3,2.3,0.4,3.1s0,2-0.1,3.8"/>
	<path id="STROKE_d72b3876-a969-4d41-bea9-229467d6646b" class="st0" d="M98,153.3c0.1,0,0.5,0,1.3,0c0.7,0,1.5,0,2.2,0
		c0.8,0,1.5-0.1,2.4-0.1c0.8-0.1,1.6-0.1,2.4-0.1s1.5,0.1,2.1,0.1s1.4,0.1,2.4,0.1s2.5,0.1,4.5,0.2c2,0.1,3.5,0.2,4.4,0.2
		s1.7,0.1,2.2,0.1s1.3,0,2.2,0c1,0,2,0,2.9,0c1,0,1.7,0,2.2,0.1c0.5,0,0.8,0,1.1,0s0.8-0.1,1.6-0.2c0.8-0.1,1.7-0.1,2.6-0.2
		s1.6,0,2.2,0.1s1.4,0,2.6-0.1c1.2-0.1,2.3-0.3,3.6-0.5c1.2-0.2,2.2-0.4,2.8-0.5c0.7-0.1,1.2-0.2,1.6-0.2c0.4-0.1,1-0.1,1.7-0.2
		c0.7-0.1,1.3-0.1,1.8-0.2c0.5-0.1,1.1-0.2,1.9-0.3c0.8-0.1,1.4-0.2,1.9-0.2s1,0,1.6,0.1c0.5,0.1,1.1,0.2,1.6,0.2
		c0.5,0.1,1.1,0.1,1.6,0.2s1.1,0.2,1.8,0.3s1.3,0.4,1.8,0.7s1,0.6,1.5,1s0.8,0.8,1.1,1.1c0.2,0.3,0.4,0.6,0.6,0.9
		c0.2,0.3,0.3,0.5,0.3,0.7c0.1,0.2,0.1,0.3,0.1,0.3s0,0.1,0.1,0.3s0.1,0.4,0.2,0.7c0.1,0.3,0.1,0.7,0.2,1c0,0.4,0.1,0.7,0.1,0.9
		s0,0.4,0,0.6c0,0.2,0,0.4-0.1,0.6c0,0.2-0.1,0.5-0.1,0.9c-0.1,0.3-0.1,0.5-0.1,0.6s-0.1,0.3-0.2,0.7c-0.1,0.4-0.2,0.7-0.3,0.9
		s-0.2,0.4-0.3,0.6c-0.1,0.2-0.5,0.6-1.1,1.3c-0.7,0.7-1.4,1.3-2.1,1.8c-0.8,0.5-1.4,1-2,1.3s-1,0.6-1.3,0.7
		c-0.3,0.2-0.6,0.3-0.9,0.4c-0.3,0.1-0.5,0.2-0.7,0.3s-0.3,0.1-0.5,0.2c-0.1,0-0.4,0.1-0.9,0.3s-1.1,0.3-1.8,0.5s-1.2,0.3-1.7,0.4
		c-0.5,0.1-1.4,0.2-2.8,0.2s-2.5,0.1-3.2,0.1c-0.8,0-1.3,0.1-1.7,0.1s-1,0-2,0.1c-1,0-1.9,0-2.7,0s-1.7-0.1-2.7-0.2
		s-1.8-0.2-2.4-0.2c-0.6,0-1.2,0-1.8,0s-1.3,0-2,0s-1.4,0-2.1-0.1c-0.7,0-1.2,0-1.5,0s-0.6,0-0.8,0.1c-0.2,0-0.4,0-0.7,0.1
		c-0.3,0-0.8,0.1-1.6,0.2c-0.8,0.1-1.6,0.1-2.3,0.1c-0.8,0-1.6,0-2.4,0s-1.5,0.1-2.1,0.1c-0.5,0.1-1,0.1-1.5,0.2
		c-0.5,0.1-0.8,0.1-1.1,0.1c-0.3,0-0.5,0-0.8,0.1c-0.3,0-0.6,0-0.9,0.1c-0.3,0-0.8,0.1-1.5,0.1c-0.6,0.1-1.3,0.1-1.9,0.2
		c-0.6,0-1.1,0.1-1.5,0.1c-0.3,0-0.9,0.1-1.6,0.2c-0.7,0.1-1.5,0.2-2.4,0.4s-1.7,0.4-2.4,0.5c-0.7,0.1-1.2,0.2-1.6,0.3
		s-1,0.1-1.8,0.3c-0.8,0.1-1.5,0.2-2.2,0.3s-1.2,0.2-1.5,0.2c-0.3,0.1-0.6,0.1-0.8,0.1c-0.2,0-0.4,0.1-0.4,0.1
		c-0.1,0-0.6,0.1-1.6,0.3s-1.8,0.3-2.3,0.3c-0.5,0.1-1.2,0.1-2.1,0.2c-0.9,0.1-1.7,0.1-2.3,0.2c-0.6,0.1-1.1,0.1-1.4,0.2
		c-0.3,0-0.7,0.1-1.1,0.1s-0.9,0.1-1.4,0.1s-0.9,0.1-1.2,0.1c-0.3,0-0.9,0.1-1.7,0.1c-0.8,0-1.5,0.1-2,0.1s-1,0-1.3,0s-1,0-2,0
		s-1.8,0-2.4,0.1c-0.6,0-1.1,0-1.4,0s-0.9-0.1-1.8-0.1c-0.9-0.1-1.6-0.1-2.2-0.2s-1.1,0-1.5,0s-0.9,0-1.5,0s-1.1,0-1.5-0.1
		c-0.4,0-1-0.2-1.7-0.3c-0.7-0.2-1.5-0.4-2.4-0.6c-0.9-0.2-1.6-0.4-2.1-0.5s-1-0.3-1.4-0.6c-0.4-0.2-0.8-0.5-1-0.6
		c-0.2-0.2-0.4-0.3-0.5-0.4c-0.1-0.1-0.3-0.3-0.4-0.5c-0.2-0.2-0.3-0.3-0.3-0.4c0-0.1-0.1-0.2-0.2-0.4c-0.1-0.2-0.3-0.7-0.6-1.5
		s-0.5-1.7-0.6-2.7s-0.1-1.9,0-2.6c0.1-0.7,0.3-1.3,0.4-1.7c0.2-0.4,0.3-0.8,0.5-1c0.1-0.3,0.4-0.7,0.8-1.3c0.4-0.6,1-1.3,1.9-2.1
		s2-1.5,3.3-2.1s2.3-1.1,3.1-1.3c0.7-0.3,1.4-0.5,2.1-0.7c0.7-0.2,1.5-0.5,2.6-0.8c1.1-0.3,2.3-0.6,3.6-0.8c1.3-0.2,2.4-0.3,3.1-0.4
		c0.7-0.1,1.5-0.1,2.4-0.2c0.9-0.1,1.6-0.2,2.1-0.2s1.4-0.1,2.7-0.1c1.2,0,2.7-0.1,4.3-0.1c1.6-0.1,2.9-0.2,3.8-0.2
		c0.9-0.1,1.6-0.1,2.1-0.1s1,0,1.5,0.1c0.5,0,1.3,0.1,2.2,0c1,0,1.8-0.1,2.5-0.1c0.7-0.1,1.4-0.1,2.1-0.2c0.7,0,1.4,0,2.2,0
		c0.7,0,1.5,0,2.3,0"/>
	<path id="STROKE_bd456bcd-fc13-4dc0-892b-8ce9fee21b2c" class="st0" d="M102.4,157.4l-0.1,0.1c0,0-0.2,1.1-0.4,3.2
		c-0.3,2.1-0.5,4.1-0.6,6s-0.1,3.6,0,5s0.2,2.4,0.3,3.1c0.1,0.7,0.1,1.2,0.1,1.5l0,0c0-0.1-0.1-0.6-0.2-1.7c-0.1-1.1-0.2-2.9,0-5.4
		c0.1-2.5,0.2-4.4,0.3-5.6c0.1-1.3,0.3-2.5,0.5-3.8C102.3,158.5,102.4,157.7,102.4,157.4c0.1-0.3,0.1,1-0.1,4
		c-0.1,3-0.2,5.5-0.3,7.6c0,2.1-0.1,4.1-0.1,5.9c0,1.8,0,3.2-0.1,4.3c0,0-0.1-1.1-0.1-3.1"/>
	<path id="STROKE_30c09a25-b38d-4e81-bff9-749db9b7d225" class="st0" d="M128,157.8c-0.1,0.2-0.1,0.6-0.1,1.4c0,0.8,0,1.6,0.1,2.4
		c0.1,0.8,0.2,1.5,0.2,2c0.1,0.5,0.1,1,0.1,1.4s0.2,1.3,0.4,2.8s0.5,2.8,0.8,3.9c0,0-0.1-0.6-0.4-1.7c-0.3-1.1-0.5-2.5-0.8-4.1
		s-0.5-3-0.6-4.3s-0.3-2.3-0.5-3.1c0,0,0.1,0.6,0.3,1.6c0.2,1.1,0.4,2,0.6,2.8s0.4,1.9,0.7,3.3c0.3,1.4,0.6,2.5,0.8,3.2
		s0.4,1.3,0.5,1.6c0.1,0.4,0.4,1,0.9,1.9c0.4,0.9,1,1.9,1.5,2.9"/>
	<path id="STROKE_1a0928f8-e712-47d0-a2e9-d83728c05d7c" class="st0" d="M150.5,155.9c0,0.1,0.1,0.8,0.3,2.1s0.4,2.8,0.5,4.5
		s0.2,3.1,0.1,4.4c0,1.2-0.1,2.2-0.1,2.8c0,0-0.1-1-0.4-2.9c-0.3-1.9-0.5-5.5-0.6-10.8c0-0.1,0.1,0.2,0.3,0.7s0.4,1.8,0.8,3.9
		c0.3,2.1,0.6,3.7,0.7,4.8s0.3,2.2,0.5,3.2c0.2,1.1,0.4,1.9,0.5,2.4s0,0.1-0.5-1.4c-0.4-1.5-0.8-2.9-1.2-4.4c-0.4-1.4-0.6-2.8-0.7-4
		C150.7,160,150.6,158.3,150.5,155.9c0.1,0,0.1,0,0.1,0c0.1,0,0.2,0.2,0.6,0.5"/>
	<path id="STROKE_443c4d0c-ba94-48e2-8b0e-462ae5f95931" class="st0" d="M70.3,159.2c0,0-0.1,0.2-0.2,0.4c-0.1,0.3-0.2,1.6-0.2,4.1
		s0,4.7,0,6.6c0.1,1.9,0.2,3.4,0.3,4.6c0.1,1.1,0.4,2.6,1,4.3c0,0,0-1.5-0.2-4.6s-0.3-5.5-0.5-7.4c-0.1-1.8-0.3-3.2-0.4-4
		c-0.1-0.9-0.3-1.5-0.6-1.8c-0.1,0-0.1,1.1,0,3.3s0.4,4.4,0.8,6.8c0.4,2.3,0.9,4.4,1.4,6.2c0,0-0.1-0.9-0.4-2.7s-0.6-3.3-0.8-4.6
		c-0.2-1.2-0.4-2.5-0.5-3.9s-0.3-2.4-0.4-3.2s-0.2-1.3-0.3-1.5c-0.1-0.2-0.1,0,0,0.7s0.7,2.8,2,6.4"/>
	<path id="STROKE_29bfbd25-2924-4541-b6de-21a083e9c77e" class="st0" d="M58.6,160.7c0,0-0.4,0-1.1,0.1c-0.7,0.1-1.5,0.3-2.4,0.8
		s-1.6,0.9-2.1,1.3c-0.5,0.4-1.1,0.9-1.8,1.6c-0.7,0.7-1.4,1.5-2.1,2.5c-0.7,1-1.3,2-1.7,3s-0.8,1.8-0.9,2.4c-0.2,0.6-0.3,1-0.3,1.4
		s0.1,0.7,0.2,1.1c0.1,0.4,0.3,0.8,0.5,1.1c0.2,0.4,0.4,0.7,0.6,0.9s0.4,0.5,0.6,0.7c0.2,0.2,0.4,0.4,0.6,0.7
		c0.2,0.2,0.5,0.5,0.8,0.7s0.7,0.5,1.1,0.8c0.5,0.3,0.9,0.5,1.2,0.6c0.4,0.1,1.2,0.4,2.5,0.7c1.3,0.4,2.4,0.6,3.4,0.8
		s2.2,0.2,3.5,0.2c1.4,0,2.4,0,3.2-0.1c0.8,0,1.5-0.1,2.3-0.1c0.7,0,1.3-0.1,1.8-0.1c0.5-0.1,1-0.2,1.7-0.4"/>
	<path id="STROKE_b7ce0707-d314-4c8a-b189-14e339256c78" class="st0" d="M59.7,162.1c-0.2,0-0.3,0-0.5,0s-0.3,0-0.5,0.1
		c-0.2,0-0.9,0.4-2.3,1.1c-1.4,0.7-2.5,1.3-3.2,1.9c-0.8,0.5-1.3,0.9-1.6,1.2c-0.3,0.2-0.5,0.6-0.8,1s-0.4,1-0.5,1.7s-0.1,1.4,0,2.1
		c0.1,0.7,0.3,1.4,0.7,2.2s1.2,1.8,2.6,3.2"/>
	<path id="STROKE_fa02fbd0-3da6-4f73-ac6c-50ee5c6e9732" class="st0" d="M49.2,66.7c-0.1,0.1-0.4,0.3-0.8,0.6
		c-0.4,0.4-0.7,0.6-0.9,0.9c-0.2,0.2-0.5,0.6-0.9,1.2s-0.8,1.1-1.2,1.5c-0.4,0.5-0.8,1.2-1.3,2.2s-1.3,2.7-2.2,5.2
		c-0.9,2.4-1.5,3.9-1.7,4.4s-0.5,1.3-0.9,2.6s-0.9,2.7-1.4,4.5c-0.5,1.7-0.9,3.4-1.2,5s-0.6,3.1-0.7,4.4c-0.2,1.4-0.2,2.6-0.2,3.6
		s0,2.1,0.1,3.1"/>
	<path id="STROKE_85fb6c76-ac0d-4f0f-8f89-5460b80def05" class="st2" d="M47.3,65.8c-0.3,0.2-1,1.5-2.3,3.9s-2.3,4.5-3,6.2
		s-1.3,3.3-1.7,4.7c-0.4,1.4-0.7,2.5-0.8,3.3c-0.2,0.8-0.4,2.2-0.8,4.2c-0.4,2-0.7,4.1-0.9,6.3c-0.3,2.2-0.4,4.5-0.5,7s0,4.6,0,6.2
		c0.1,1.6,0.3,3.2,0.6,4.7s0.6,2.8,0.9,3.8c0.3,1,1.4,2.9,3.5,5.6"/>
	<path id="STROKE_845f0963-be81-4777-afa8-45b3ef7c7c5c" class="st2" d="M45.1,74.2c0,0-0.4,1.2-1.2,3.5c-0.7,2.3-1.3,4.3-1.8,6.2
		c-0.5,1.8-0.9,3.8-1.4,5.9s-0.9,4.8-1.3,7.9c-0.4,3.2-0.6,5.6-0.8,7.3c-0.1,1.7-0.2,3.5-0.1,5.6c0,2,0.1,3.6,0.2,4.8
		c0.1,1.2,0.3,2.4,0.6,3.7c0.3,1.3,0.7,2.4,1.3,3.4c0.5,1,1,1.8,1.4,2.3s1.3,1.3,2.6,2.3"/>
	<path id="STROKE_3b8fcc5e-e133-4414-a209-8bae6512e00b" class="st2" d="M40.2,80.7c-0.1,0.1-0.6,1.1-1.3,3
		c-0.8,1.9-1.4,3.9-1.8,5.9c-0.5,2-0.8,4.1-1,6.3c-0.2,2.2-0.3,4-0.3,5.4s0,2.4,0,3.1c0,0.6,0.1,1.2,0.1,1.6c0,0.5,0.1,1.3,0.2,2.4
		s0.3,2.8,0.6,4.8s0.7,3.9,1.2,5.7c0.5,1.8,1,3.2,1.4,4.3c0.5,1.1,0.9,1.9,1.3,2.6c0.4,0.6,0.9,1.4,1.6,2.2c0.7,0.9,1.3,1.6,2,2.3
		c0.6,0.7,1.4,1.3,2.2,1.8s1.6,0.9,2.4,1.1c0.8,0.2,1.6,0.4,2.4,0.4c0.8,0,1.8-0.1,2.9-0.4"/>
	<path id="STROKE_2a291bc0-2eba-4d69-a366-12bc83beb676" class="st2" d="M34.8,111.2c0,0.1,0.3,0.8,0.8,2.3c0.5,1.4,1,2.7,1.4,3.7
		c0.5,1,1.3,2.4,2.6,4.1s2.5,3.3,3.8,4.7c1.3,1.4,2.6,2.7,4.1,4c1.5,1.2,2.8,2.2,3.8,2.8c1,0.7,2.1,1.2,3.2,1.7
		c1.1,0.5,2.3,0.8,3.6,0.9c1.3,0.1,2.3,0.2,3.1,0.2s1.4,0,1.7-0.1c0.4,0,1.1-0.2,2.1-0.4s2.7-1.1,5-2.7"/>
	<path id="STROKE_bb28ac49-5ec9-4034-aa02-ac3f5088ed23" class="st2" d="M52.1,129.8c0.2,0.2,0.7,0.5,1.2,1c0.6,0.5,1.2,1.1,2,1.7
		c0.8,0.7,1.6,1.3,2.4,2c0.8,0.6,1.8,1.1,2.9,1.6c1.1,0.5,2.2,0.8,3.4,0.9c1.2,0.2,2.4,0.2,3.8,0c1.3-0.2,2.7-0.5,4.2-1.1
		s2.7-1.2,3.8-1.8c1.1-0.6,2.5-1.4,4.2-2.5s3.2-2.2,4.4-3.2c1.2-1,2.1-1.8,2.7-2.4s1.1-1.1,1.5-1.5s1.7-1.9,4-4.6"/>
	<path id="STROKE_6f357aa7-a8d6-48f5-9ced-d592243ec3b7" class="st2" d="M70.3,64.5c0.2,0.1,0.7,0.3,1.5,0.6
		c0.8,0.3,1.6,0.9,2.4,1.8c0.9,0.9,1.7,1.7,2.4,2.4c0.7,0.7,1.5,1.4,2.3,1.9c0.8,0.6,1.9,1.2,3.1,1.8c1.2,0.7,2.5,1.4,3.9,2.4
		c1.4,0.9,2.6,1.7,3.5,2.5c1,0.7,2,1.5,3,2.3s1.9,1.5,2.6,2.3c0.7,0.7,1.2,1.3,1.5,1.7c0.3,0.4,0.6,0.8,0.8,1.2
		c0.2,0.3,0.6,1,1.1,1.9s1,2.2,1.4,3.9c0.5,1.6,0.8,3.5,1.1,5.6s0.4,3.9,0.3,5.4c0,1.6-0.1,2.9-0.2,4.1c-0.1,1.1-0.3,2.1-0.5,3
		c-0.2,0.8-0.6,1.8-1.2,2.8"/>
	<path id="STROKE_b507c7cc-4381-4ec5-9172-65383dbd4789" class="st2" d="M93.1,75.9c0,0,0.3,0.5,1,1.3c0.6,0.8,1.4,1.9,2.1,3.4
		c0.8,1.4,1.3,2.6,1.6,3.4c0.3,0.8,0.7,1.7,1.1,2.6s1.1,2.4,1.9,4.5c0.8,2,1.5,3.9,2.1,5.6c0.5,1.7,0.9,3.4,1.1,5s0.3,3.2,0.2,4.6
		c0,1.5-0.3,3.3-0.8,5.4s-1.2,4.2-2.1,6.3c-0.9,2.1-1.6,3.6-2.2,4.7c-0.5,1.1-1,2-1.5,2.7s-1.4,1.8-2.8,3.3
		c-1.3,1.5-2.4,2.6-3.2,3.5c-0.8,0.8-1.6,1.5-2.3,2c-0.8,0.5-1.6,0.9-2.4,1.3c-0.8,0.3-1.6,0.5-2.3,0.5c-0.7,0.1-1.3,0.1-1.7,0
		c-0.4-0.1-0.9-0.2-1.4-0.5"/>
	<path id="STROKE_5c6b9f91-1893-45f2-b305-12b7da8b33ab" class="st2" d="M96,119.3c-0.1,0.1-0.6,0.5-1.5,1.2s-1.5,1.4-2.1,2
		c-0.5,0.6-1.1,1.2-1.7,1.9c-0.6,0.6-2,1.6-4,2.8c-2.1,1.2-3.7,2.2-4.8,2.8c-1.1,0.7-2.1,1.2-2.9,1.8c-0.8,0.5-1.8,1.1-3,1.7
		c-1.1,0.6-2.1,1-2.8,1.3c-0.7,0.3-1.9,0.6-3.5,1c-1.7,0.4-3,0.6-3.9,0.8c-1,0.1-2.2,0.2-3.8,0.2s-3,0-4.2-0.2
		c-1.2-0.1-2.3-0.4-3.2-0.9c-0.1-0.2,0.5-0.2,1.9,0s2.7,0.4,3.9,0.7s2.4,0.5,3.6,0.7c1.1,0.1,2.4,0.2,3.7,0.1
		c1.3-0.1,2.5-0.2,3.7-0.4s2.4-0.5,3.7-1c1.3-0.5,2.8-1.3,4.4-2.3s2.9-2,3.7-2.6s1.7-1.2,2.4-1.5s1.6-0.9,2.5-1.5
		c0.9-0.6,1.9-1.5,2.9-2.6s1.8-2.1,2.4-2.8s1.1-1.3,1.5-1.8s0.9-1.3,1.5-2.3c0.6-1.1,1-2,1.4-2.8s0.7-1.7,1-2.7
		c0.4-1,0.6-2.3,0.7-4.1"/>
	<path id="STROKE_77b416a7-bca2-4586-84d1-bf3fa4f201e7" class="st2" d="M99.3,101c0,0.2,0.1,1.2,0.4,3c0.2,1.8,0.4,3.3,0.5,4.6
		s0,2.6-0.3,4.1s-0.6,2.7-0.8,3.6c-0.3,0.9-0.7,2-1.3,3.1s-1.4,2.3-2.3,3.4s-1.8,2.1-2.6,2.9c-0.8,0.8-1.8,1.5-2.9,2
		c-1.1,0.6-2.5,1.2-4.4,2c-1.8,0.8-3.2,1.3-4.2,1.7c-1,0.3-1.7,0.6-2.3,0.8c-0.6,0.2-1.1,0.3-1.5,0.5c-0.4,0.1-1.9,0.7-4.6,1.7
		c-2.6,1-7.4,2.4-14.4,4.4c0,0,0.4-0.1,1.3-0.4c0.9-0.2,2.2-0.6,4-0.9c1.8-0.4,3.5-0.8,5.3-1.4c1.8-0.5,3.4-1.2,4.9-2s3.1-1.7,5-2.7
		c1.8-1.1,3.2-1.9,4.2-2.5s1.9-1.2,2.6-1.8c0.7-0.6,2-2,3.9-4.3c1.8-2.2,3.3-4,4.4-5.3s2.1-2.8,3-4.4s1.6-2.8,2-3.7
		c0.4-0.9,0.7-1.5,0.9-2c0.2-0.5,0.5-1.2,0.9-2.2s0.8-2.2,1.1-3.7c0.3-1.5,0.5-2.7,0.5-3.7c0.1-1,0.1-2.1,0-3.5
		c-0.1-1.3-0.3-3.3-0.7-5.9"/>
	<path id="STROKE_b40d3fdf-b5ed-4a9c-afd3-a2681c393e78" class="st2" d="M136,66.7c0,0-0.2-0.1-0.4-0.1c-0.2-0.1-0.5-0.1-0.8-0.2
		s-0.8-0.1-1.4-0.2c-0.6,0-1.2,0-1.8,0.2s-1.3,0.5-2.2,1.1c-0.8,0.6-1.5,1.1-2,1.5s-1.1,0.9-1.7,1.4s-1.6,1.7-3.1,3.7
		c-1.5,1.9-2.6,3.5-3.4,4.6s-1.4,2.1-1.9,2.9s-1,1.8-1.5,3.1c-0.6,1.2-1.2,3.4-1.9,6.3c-0.7,3-1.2,5.8-1.5,8.5s-0.5,4.7-0.6,6.1
		s-0.2,3-0.1,4.8c0,1.8,0.1,3.2,0.2,4.2s0.2,2,0.4,2.9c0.2,0.9,0.4,1.7,0.7,2.3c0.3,0.6,0.5,1.1,0.8,1.4c0.2,0.3,0.4,0.6,0.6,0.7
		c0.2,0.2,0.5,0.4,0.9,0.7"/>
	<path id="STROKE_31cc53e9-b7d3-4c39-8463-f545416804f9" class="st2" d="M120,81.4c-0.1,0.1-0.6,0.4-1.4,0.8
		c-0.8,0.5-1.6,1.3-2.4,2.4s-1.5,2.6-2.1,4.2c-0.6,1.7-1,2.9-1.3,3.8s-0.6,2.1-1,3.7s-0.7,3.5-1,5.6s-0.4,3.7-0.5,4.8
		c-0.1,1.1-0.1,2.5,0,4.3s0.2,3.2,0.3,4.3c0.1,1.1,0.5,2.6,1.2,4.6s1.2,3.4,1.6,4.4s0.7,1.8,1,2.4s0.7,1.3,1.2,2.2s1.1,1.8,2,2.8
		c0.8,1,1.6,1.8,2.4,2.5s1.7,1.1,2.8,1.5c1.1,0.3,2.1,0.4,2.9,0.3c0,0-0.4-0.5-1.2-1.5c-0.8-1-1.5-1.9-2.1-2.6
		c-0.6-0.7-1.2-1.4-1.9-2c-0.6-0.6-1.1-1.1-1.6-1.5c-0.4-0.4-0.9-1-1.6-1.8c-0.6-0.8-1.3-1.8-1.9-2.8c-0.6-1.1-1.4-2.4-2.2-3.9
		c-0.9-1.5-1.6-3-2.2-4.5s-0.9-2.8-0.9-4.1c0.1,0,0.6,1.1,1.4,3.3c0.8,2.2,1.4,4,1.8,5.4s0.7,2.4,0.9,3.1c0.2,0.7,0.6,1.4,1,2.3
		s1,1.8,1.8,2.8s1.4,1.7,1.8,2.2c0.5,0.5,1,1,1.5,1.6c0.6,0.6,1.2,1.2,1.8,1.8c0.7,0.6,1.7,1.1,3.1,1.5s2.5,0.6,3.4,0.7
		c0.9,0.1,1.7,0.1,2.4,0.2c0.8,0,1.7,0.1,2.8,0.1s2.3-0.2,3.7-0.7c1.4-0.4,2.5-1,3.3-1.6c-0.1-0.1-0.4-0.2-1-0.5
		c-0.6-0.2-1.4-0.5-2.3-0.8c-0.9-0.3-1.9-0.6-2.8-0.8c-1-0.2-2-0.4-3-0.4s-2.4,0.3-4,0.8c-1.6,0.6-3,1.3-4.1,2.1
		c0,0.1,0.6,0.4,1.7,1s2.4,1.1,3.8,1.5s3.2,0.8,5.3,1s3.6,0.4,4.7,0.5c1.1,0.1,2.4,0.1,3.9,0s2.7-0.2,3.5-0.3s2.1-0.4,3.9-0.8
		c1.8-0.4,3.5-0.9,5.2-1.5s3-1.1,4-1.5c0.9-0.4,2-1,3.2-1.7c1.3-0.7,2.5-1.5,3.9-2.4c1.3-0.9,2.4-1.6,3.2-2.3
		c0.8-0.6,1.7-1.5,2.5-2.5c0.8-1.1,1.6-2.3,2.2-3.7c0.6-1.4,1.1-2.7,1.6-4c0.4-1.3,0.8-2.3,1.1-3s0.5-1.2,0.7-1.7
		c0.2-0.4,0.4-1,0.6-1.6c0.2-0.6,0.4-1.2,0.5-1.6c0.1-0.5,0.3-1.2,0.5-2.1s0.3-2.2,0.3-3.7c0-1.6,0-2.8-0.1-3.6
		c-0.1-0.9-0.2-1.7-0.3-2.6"/>
	<path id="STROKE_6bd0c07c-7408-4b01-b684-1e8dd16cb795" class="st2" d="M179.1,89.1c0,0,0,1.1,0.1,3.2s0,4.5-0.3,7.1
		s-0.6,4.7-0.9,6.2c-0.3,1.5-0.6,2.7-0.9,3.8c-0.3,1-0.6,2.1-1,3.3c-0.4,1.2-0.9,2.2-1.3,3.2c-0.4,0.9-0.9,1.8-1.5,2.4
		c-0.5,0.7-1.4,1.7-2.6,3.1c-1.2,1.4-2.2,2.4-3,3.1c-0.7,0.7-1.9,1.6-3.6,2.7c-1.7,1.1-3.2,2-4.5,2.9c-1.3,0.8-2.5,1.5-3.6,2
		s-1.9,0.9-2.5,1.2s-1.3,0.6-2,0.9c-0.7,0.3-2.4,0.5-5.1,0.5c-2.7,0-4.7,0-6,0c-1.4-0.1-2.3-0.1-3-0.1s-1.5-0.3-2.6-0.9
		c-1.1-0.6-2.1-1.2-3-1.8s-1.5-1.2-2.1-1.7c-0.5-0.5-1.1-1-1.7-1.5c-0.6-0.5-1.3-1.1-2-1.9c-0.7-0.7-1.3-1.3-1.6-1.8
		c-0.4-0.5-0.9-1.3-1.6-2.3c-0.7-1.1-1.2-1.9-1.5-2.5s-0.6-1.5-0.9-2.7s-0.7-2.4-1.1-3.7c-0.4-1.2-0.7-2.5-1-3.9s-0.5-2.5-0.5-3.3
		s0-1.5,0.1-2.1c0.1-0.5,0.2-1.1,0.4-1.8"/>
	<path id="STROKE_06e1922f-ff1d-4e34-b2c8-d883a1f4aa0c" class="st2" d="M136.8,66.8c-0.1,0.1-0.5,0.2-1.2,0.5s-1.4,0.5-2.1,0.8
		c-0.7,0.3-1.3,0.7-2.1,1.4c-0.7,0.7-1.3,1.2-1.6,1.7c-0.4,0.5-1.1,1.5-2.1,3.2c-1.1,1.6-2,3.4-2.8,5.1c-0.8,1.8-1.4,3.1-1.8,4.1
		s-1,2.6-1.8,4.9s-1.6,4.8-2.2,7.4c-0.7,2.6-1.2,5.3-1.5,8.2"/>
	<path id="STROKE_492eeafc-e5de-43d8-b687-2adc4b7aa127" class="st2" d="M55.3,162.8c-0.5,0.2-1,0.9-1.7,2.3
		c-0.7,1.3-1.2,2.8-1.5,4.3c-0.4,1.5-0.6,2.8-0.7,3.8c-0.1,1-0.1,2,0.1,3.1c0.2,0.2,0.6-0.2,1.2-1.1c0.6-0.9,1.2-2,1.7-3.2
		s0.9-2.4,1.1-3.4c0.2-1,0.4-1.8,0.4-2.3s0-0.9-0.1-1.2c-0.1-0.2-0.1-0.4-0.2-0.5c-0.1-0.1-0.3-0.2-0.5-0.3s-0.6,0.2-1.2,0.8
		c-0.5,0.5-0.9,1.1-1.1,1.5c-0.2,0.5-0.4,0.9-0.6,1.3c-0.1,0.4-0.4,1.1-0.7,2.1c-0.3,1.1-0.5,2-0.6,2.8s-0.1,1.4-0.1,1.8
		c0.1,0.4,0.1,0.7,0.2,0.8c0.1,0.1,0.1,0.2,0.1,0.2s0.1,0.1,0.3,0.1c0.1,0,0.3,0,0.4-0.1c0.1-0.1,0.3-0.3,0.4-0.6
		c0.2-0.3,0.4-0.9,0.7-1.9s0.5-1.9,0.5-2.7c0.1-0.8-0.1-1.6-0.6-2.4h-0.2c-0.3,0-0.6,0.5-1,1.6s-0.7,2.1-0.8,3.1
		c-0.1,1.1-0.1,1.9,0,2.6c0.1,0.7,0.2,1.3,0.4,1.9s0.5,1,0.7,1.3c0.2,0.2,0.5,0.4,0.8,0.5s0.5,0.1,0.8,0.1s0.5-0.1,0.6-0.2
		c0.2-0.1,0.3-0.2,0.5-0.4s0.5-0.7,0.8-1.6c0.3-0.9,0.5-1.8,0.5-2.6s-0.1-1.5-0.3-2.1s-0.4-1-0.7-1.3s-0.5-0.5-0.7-0.5
		c-0.2-0.1-0.4-0.1-0.6-0.1c-0.2,0-0.5,0.2-0.7,0.5c-0.3,0.3-0.5,0.8-0.8,1.5c-0.2,0.7-0.4,1.5-0.4,2.4c0,0.8,0.1,1.5,0.3,2.1
		c0.2,0.5,0.4,0.9,0.6,1.2c0.2,0.2,0.4,0.4,0.7,0.5s0.4,0.2,0.4,0.2s0.2,0,0.5,0.1c0.3,0,0.5,0,0.7-0.1s0.3-0.4,0.4-0.8
		c0.1-0.5,0-1-0.2-1.7s-0.7-1.2-1.3-1.6c-0.2,0.1-0.3,0.5-0.2,1.2s0.2,1.2,0.4,1.7s0.7,0.9,1.3,1.3c0.7,0.4,1.4,0.7,2.1,0.9
		c0.8,0.2,1.3,0.3,1.6,0.2c0.3,0,0.5-0.1,0.7-0.1c0.1,0,0.3-0.1,0.4-0.3c0-0.1-0.3-0.5-0.9-1.2c-0.6-0.7-1.1-1.1-1.4-1.2
		c-0.3-0.1-0.8,0-1.3,0.3c0.1,0.6,3.4,1,10.2,1.3c-0.1,0-0.6-0.2-1.6-0.4c-1-0.3-2.8-0.2-5.4,0.3c0,0.1,0.5,0.2,1.5,0.2
		c1,0.1,2.5,0,4.5-0.3s3.4-0.4,4.4-0.6c1-0.1,1.6-0.2,1.8-0.3c0.2-0.1,0.5-0.2,0.7-0.3c0-0.1,0-0.4-0.2-0.8"/>
	<path id="STROKE_0113b5d8-208c-4ca6-a5c7-8ddabc536795" class="st2" d="M68.9,174.9c0,0,0.5,0.2,1.4,0.5s2.1,0.5,3.6,0.5
		c1.5,0.1,2.8,0.2,3.9,0.3c1,0.1,2.1,0.2,3.1,0.3s2.2,0.3,3.5,0.5s2.4,0.3,3.4,0.3s1.8,0.1,2.3,0c0.6,0,1.7,0,3.3,0
		c1.6,0.1,3.2,0.1,4.7,0.1s2.7,0.1,3.6,0.1s1.7,0,2.5-0.2c0.8-0.1,1.6-0.2,2.5-0.3s1.8-0.1,2.8-0.1s2,0,3-0.1s2-0.3,3-0.6
		c0.2-0.3-0.3-0.7-1.5-1c-1.1-0.4-2.3-0.6-3.5-0.7c-1.2-0.1-2.5-0.2-3.7-0.4c-1.3-0.2-2.4-0.3-3.4-0.4c-1-0.1-2.2-0.1-3.6-0.1
		s-2.4,0-3.1,0s-1.5,0-2.3,0.1s-1.9,0.1-3.3,0s-3.3-0.1-5.9-0.2c-2.5-0.1-4.4-0.2-5.7-0.2c-1.3-0.1-2.3-0.1-3,0
		c-0.7,0-1.9,0.3-3.5,0.7c0,0.1,1.2,0.4,3.4,0.6c2.2,0.3,4,0.4,5.3,0.5c1.3,0,2.4,0.1,3.2,0c0.8,0,2.7-0.1,5.8-0.1s6-0.1,8.8-0.2
		c2.9-0.1,5.1-0.2,6.8-0.2c1.6,0,2.9,0,3.9-0.1c0.9,0,3.2-0.1,6.7-0.2v-0.1c0,0-0.5-0.1-1.6-0.3s-2.6-0.3-4.6-0.3s-3.7-0.1-5.1-0.1
		s-3.2,0-5.5,0s-4.2,0.1-5.7,0.1s-2.6,0.1-3.3,0.1c-0.7,0.1-1.4,0.1-2.1,0.2c-0.7,0-2.1,0.1-4.2,0.2c-2.1,0.1-4,0.2-5.9,0.3
		s-4,0.3-6.2,0.7c0,0.1,2.8,0.1,8.2-0.1c5.5-0.2,9.7-0.4,12.8-0.6c3.1-0.2,5.5-0.4,7.2-0.5s3.2-0.2,4.6-0.3s3.1-0.2,5.1-0.4
		s3.7-0.3,5-0.3s2.7-0.1,4-0.2c1.3-0.1,2.4-0.2,3.2-0.2c0.8-0.1,1.7-0.1,2.7-0.2c1,0,1.9-0.1,2.9,0c0.9,0,1.6,0,2.1-0.1
		c0-0.1-0.3-0.2-0.8-0.5s-2.1-0.4-4.7-0.3c-2.6,0.1-4.8,0.2-6.5,0.3s-2.9,0.2-3.7,0.3s-1.6,0.2-2.4,0.3s-2.4,0.3-4.9,0.5
		c-2.5,0.3-6.2,0.8-11,1.6c0,0.2,0.6,0.3,1.8,0.3c1.2,0,2.2,0,3,0c0.8-0.1,1.4-0.1,1.9-0.2c0.5,0,1.2-0.1,2.1-0.1
		c0.9-0.1,2.8-0.3,5.6-0.6c2.9-0.3,6.3-0.7,10.4-1.2s7.2-0.9,9.2-1.1c2-0.3,4.1-0.5,6.1-0.6s3.6-0.2,4.7-0.3
		c1.1-0.1,2.1-0.1,3.1-0.2c1-0.1,2.1-0.2,3.2-0.2c1.1-0.1,2.7-0.2,4.7-0.4c0,0-0.4-0.1-1.2-0.4s-1.8-0.4-3-0.5s-3.1-0.1-5.6,0
		c-2.6,0.1-4.6,0.2-6,0.3s-2.5,0.1-3.1,0.2c-0.7,0-1.2,0.1-1.7,0.1s-1.3,0.1-2.3,0.2c-1,0.1-2.3,0.2-3.9,0.3s-3.1,0.3-4.4,0.5
		c-1.4,0.2-2.6,0.4-3.8,0.4c-1.2,0.1-2.2,0.2-3.2,0.3c-0.9,0.1-1.7,0.3-2.2,0.5s-0.9,0.5-1.2,0.8c0,0.3,0.8,0.6,2.3,0.9
		c1.6,0.3,3.3,0.5,5.3,0.4c1.9-0.1,3.4-0.2,4.4-0.3s1.9-0.2,2.7-0.3c0.8-0.1,2.2-0.2,4.2-0.4c2-0.2,4.2-0.5,6.7-0.7s4.4-0.4,5.8-0.6
		c1.4-0.1,2.6-0.3,3.7-0.4c1-0.1,2.4-0.2,4.1-0.3c1.7-0.1,4.7-0.4,8.9-1.2c0-0.1-1.3-0.2-3.9-0.1c-2.6,0.1-5,0.2-7,0.5
		c-2,0.2-4.2,0.6-6.3,1.3c0,0.1,1.1-0.1,3.2-0.6c2.1-0.5,4-1,5.7-1.6s3-1,4-1.4c0.9-0.4,1.7-0.6,2.2-0.9c0.5-0.2,1.2-0.5,1.9-1
		c0.7-0.4,1.3-0.9,1.9-1.5c0.5-0.5,1.1-1.3,1.5-2.4c0.5-1,0.8-1.9,1-2.7c0.2-0.7,0.3-1.3,0.3-1.7s0-0.8-0.1-1.3s-0.1-0.8-0.2-1.1
		c-0.1-0.2-0.1-0.4-0.1-0.4s0-0.1,0-0.3c0-0.1,0-0.2,0-0.3c0.1,0,0.3,0.3,0.5,0.8c0.3,0.5,0.4,1.2,0.5,2s0.1,1.8,0,2.8
		s-0.1,1.8-0.2,2.4c-0.1,0.6-0.3,1.2-0.7,1.9s-0.9,1.3-1.5,1.9s-1.3,1-2,1.3c-0.8,0.3-1.5,0.6-2.2,0.7c-0.7,0.1-1.3,0.2-1.8,0.1
		c-0.5,0-1.2-0.2-2-0.5c-0.1-0.1,0.3-0.4,1.3-0.8c1-0.4,2.2-1,3.7-1.8s2.5-1.4,3.2-1.8c0.7-0.5,1.2-0.8,1.5-1s0.6-0.4,0.8-0.7
		s0.5-0.6,0.8-1.1s0.5-1,0.6-1.6s0.2-1.1,0.2-1.5s0-0.6,0-0.7c0-0.1,0-0.3-0.1-0.5c0-0.2-0.1-0.5-0.3-0.9c0,0,0,0.3,0.2,0.9
		c0.2,0.6,0.2,1.5,0.2,2.8s-0.1,2.3-0.2,3c-0.1,0.7-0.3,1.4-0.5,1.9c-0.3,0.5-0.8,1.1-1.6,1.6c-0.8,0.6-1.7,1-2.8,1.4
		s-2.4,0.8-3.7,1.3c-1.4,0.4-3,0.8-4.8,1s-3.7,0.4-5.6,0.6c-1.9,0.1-3.3,0.2-4.3,0.3c-0.9,0.1-1.7,0.1-2.2,0.1s-1,0-1.5,0
		s-1,0-1.7,0.1c-0.6,0-1.5,0.1-2.5,0.2c-1,0.1-2.2,0.2-3.6,0.3c-1.4,0.1-2.6,0.2-3.6,0.2s-1.8,0.1-2.6,0.1c-0.7,0.1-1.6,0.1-2.5,0.2
		c-1,0.1-2.7,0.1-5.2,0.1s-4.7,0-6.6,0s-3.3,0-4.3,0s-2.3,0-4-0.1c-1.7,0-3,0-4,0.1s-1.9,0.1-2.6,0.2c-0.7,0-1.9,0.1-3.6,0
		c-1.6,0-3.5,0-5.5,0.1s-3.6,0.1-4.7,0.2c-1.1,0-2.1,0.1-2.8,0c-0.7,0-1.6,0-2.8,0.1c-1.1,0.1-2.2,0.1-3.2,0.2c-1,0-2.1,0.1-3.1,0.1
		s-2.4,0.1-4.1,0.2"/>
	<path id="STROKE_f69a498a-5d14-43d6-bccf-29b8c82f3e4b" class="st2" d="M54.1,177.4c0,0-0.1-0.2-0.4-0.5c0,0,0.1-0.5,0.4-1.3
		c0.3-0.9,0.6-1.6,0.8-2.1c0.2-0.6,0.3-1,0.4-1.3c0.1-0.3,0-0.9-0.1-1.6c-0.1-0.7-0.2-1.4-0.3-1.9s0-1,0.1-1.5
		c0.2-0.5,0.5-1.1,1.1-1.6c0.5-0.5,1.7-1.2,3.5-1.9s3.2-1.3,4.3-1.8c1.1-0.4,2.8-1,5.2-1.8s4.3-1.3,5.7-1.7c1.4-0.4,2.9-0.8,4.4-1.1
		s3-0.7,4.5-1s2.5-0.5,3.2-0.7s1.7-0.4,3-0.7"/>
	<path id="STROKE_55453880-1f2a-46cb-81ff-debfd8e7c61b" class="st2" d="M47.7,178.4c0,0,0.3,0.4,0.7,1.2c0.5,0.8,1,1.5,1.6,2.1
		s1.3,1.2,2.2,1.6c0.9,0.5,1.9,0.8,2.9,1.1c1,0.2,2.3,0.4,4,0.4c1.6,0.1,3.3,0.1,4.9,0c1.6,0,2.9-0.1,3.8-0.2
		c0.9-0.1,1.6-0.1,2.1-0.2c0.5,0,1.9-0.1,4.2-0.2c2.3-0.1,4.8-0.3,7.3-0.4c2.5-0.2,5.2-0.3,8.3-0.4c3-0.1,5.4-0.2,7-0.3
		s2.8-0.1,3.6-0.2c0.8,0,2.5-0.2,5.3-0.4s5-0.4,6.8-0.5s3.5-0.3,5.2-0.6s2.9-0.4,3.7-0.5c0.8-0.1,2-0.3,3.6-0.5
		c1.5-0.2,2.7-0.4,3.5-0.6c0.8-0.2,1.7-0.3,2.7-0.6c1-0.2,2.1-0.4,3.2-0.5c1.1-0.1,2.1-0.2,3-0.3s1.6-0.3,2.2-0.6
		c-0.1-0.1-1.4-0.4-3.9-1"/>
	<path id="STROKE_992b4ddd-8cc5-4b1b-94a3-53f5d27e7ebf" class="st2" d="M58.3,176.3c0.2,0.1,0.9,0.2,2.3,0.5
		c1.4,0.3,3.5,0.4,6.3,0.4c2.9,0,5.1,0,6.7,0c1.6-0.1,3.7-0.1,6.3-0.3c2.6-0.1,4.6-0.2,6-0.3c1.5-0.1,2.7-0.1,3.7-0.2
		c1-0.1,1.8-0.1,2.4-0.1s1.8,0,3.8-0.1s4-0.2,6-0.3s3.6-0.2,4.9-0.3c1.2,0,2.2-0.1,2.8-0.1c0.7,0,1.8-0.1,3.4-0.3
		c1.6-0.1,3.5-0.3,5.7-0.4c2.2-0.1,4-0.3,5.2-0.4c1.2-0.1,2.6-0.2,4.2-0.4c1.6-0.1,2.9-0.3,4-0.4c1.1-0.1,2.9-0.2,5.3-0.4
		c2.5-0.2,4.4-0.3,5.6-0.4c1.3-0.1,2.4-0.2,3.4-0.3c1-0.2,2.4-0.3,4-0.4c1.6-0.1,3-0.2,4.1-0.3s2-0.2,2.7-0.4s1.2-0.3,1.5-0.4
		c0.3-0.1,0.5-0.2,0.7-0.3s0.3-0.4,0.4-0.9"/>
	<path id="STROKE_97c2c6f2-e3e3-4743-bf3f-86b018c0b5d3" class="st2" d="M22.6,65.4c0.1,0.4,0.1,2.7-0.1,7.1s-0.4,8-0.6,11
		s-0.4,5.2-0.6,6.7S21,93,20.9,94.1s-0.4,3-0.7,5.7c-0.4,2.7-0.7,5.2-1,7.4c-0.3,2.2-0.6,4.1-0.9,5.6c-0.2,1.5-0.6,3.8-1.1,7
		c0,0,0-2.2,0.1-6.5s0.2-8.3,0.2-12c0.1-3.7,0.1-6.5,0-8.5c0-2,0-4.2,0-6.5c0-2.4,0.1-4.6,0.1-6.8c0.1-2.2,0.2-3.9,0.2-5
		c0.1-1.2,0.1-2.1,0.2-2.8c0.1-0.7,0.5-4.9,1.2-12.6c0.1,0.1,0.1,1.5,0,4.3c0,2.8-0.1,5.2-0.1,7.2S19,75.4,18.8,79
		c-0.1,3.6-0.2,6.4-0.3,8.3c-0.1,2-0.1,3.5-0.2,4.7s-0.1,2.6-0.2,4.4c-0.1,1.7-0.2,4.2-0.4,7.3c-0.2,3.2-0.3,5.6-0.4,7.5
		c-0.1,1.8-0.1,3.1,0,4c0.1,0,0.2-1,0.4-2.9c0.1-1.9,0.3-4.4,0.4-7.5s0.3-6.1,0.4-9c0.2-2.9,0.4-5.5,0.6-7.6s0.4-3.7,0.5-4.8
		c0.1-1.1,0.3-2.6,0.5-4.4s0.4-3.6,0.6-5.3c0.2-1.7,0.2-3.8,0-6.2c0,0,0.2,1,0.3,2.9c0.2,1.9,0.2,5.9-0.1,12.1
		c-0.2,6.1-0.4,10.8-0.5,14.1c-0.1,3.3-0.2,5.7-0.2,7.2s0,2.8-0.1,3.8c0,1,0,2.5,0,4.5s0,4.6,0.1,7.7s0.1,5.8,0.1,8.2
		c0,2.4-0.1,4.7-0.1,6.9c-0.1,2.2-0.2,4.9-0.2,8c-0.1,3.1-0.1,6.1-0.1,9s0.2,6.2,0.5,9.9c0.1-0.1-0.1-4.3-0.5-12.7"/>
	<path id="STROKE_7e9502f3-a4f1-4548-a5da-cbfe40b68178" class="st2" d="M22.3,105.5L22.3,105.5c0,0.1,0,1,0,2.8s-0.1,4.9-0.3,9.3
		c-0.2,4.4-0.4,7.8-0.6,10s-0.3,4.4-0.5,6.6c-0.1,2.2-0.3,4.5-0.4,7s-0.2,5.6-0.3,9.3c-0.1,3.7-0.1,6.8-0.2,9.3c0,2.5,0,4.4,0,5.6
		c0,1.2,0,2.5,0,3.7s0,2.2,0,3s0,2.5-0.1,5.1c-0.1,2.7-0.1,5.3-0.2,8c0,2.7-0.2,6.8-0.6,12.5c0,0.1-0.1-1-0.2-3.2s0-5.3,0.2-9.4
		c0.2-4.1,0.4-7.3,0.6-9.5s0.3-3.8,0.4-4.8s0.1-1.8,0.2-2.4c0.1-0.6,0.1-1.3,0.2-2s0.2-2.3,0.3-4.8c0.1-2.5,0.3-5.9,0.5-10.4
		s0.4-7.8,0.5-10.1s0.3-4.1,0.4-5.4c0.1-1.4,0.4-4.4,1-9.1c0,0,0,0.1,0,0.3c0,0.2,0,0.4,0,0.6s0,0.7-0.1,1.6c0,0.9-0.1,2.6-0.2,5.2
		c-0.1,2.6-0.3,6.5-0.6,11.8c-0.3,5.3-0.5,9.3-0.6,11.9c-0.2,2.7-0.3,4.9-0.4,6.8c-0.1,1.9-0.2,3.6-0.3,5.4
		c-0.1,1.7-0.3,3.7-0.5,5.9s-0.4,5.1-0.5,8.7s-0.3,6.5-0.3,8.8s-0.1,4.1-0.1,5.4c0,1.3,0,2.7,0.1,4c0.1,0.1,0.1-0.6,0.1-2
		s0-3.7-0.1-6.6c-0.1-3-0.1-5.4-0.1-7.4c0-1.9,0-3.4,0.1-4.5c0-1.1,0.1-4.4,0.1-10.1c0-5.7,0-10.1,0-13.1c0-3.1,0-5.5,0-7.2
		s0.1-3,0.1-3.9s0.1-1.9,0.1-3.2c0.1-1.3,0.1-2.6,0.2-3.9c0.1-1.3,0.2-3.3,0.3-6c0.2-2.7,0.3-5.2,0.3-7.7c0.1-2.5,0.1-4.4,0.1-5.8
		s-0.1-3.1-0.2-5.1s-0.2-4.1-0.3-6.3c-0.1-2.1-0.3-6.8-0.8-13.9c0,0.1,0,2.1,0,6.1s0.1,7.5,0.3,10.5c0.2,3,0.3,5.7,0.4,8.1
		s0.1,4.2,0.2,5.3c0,1.1,0,3.3,0,6.4c0,3.1-0.1,5.6-0.1,7.4c0,1.8,0,3.3,0,4.4c0,1.1,0,2.8,0.1,5s0.1,4.5,0.2,6.8s0.1,4,0.2,5.2
		c0,1.2,0,2.3,0,3.4c0,1.1,0,2.6,0,4.6s0,4.3-0.1,7.2c0,2.8-0.1,6.5-0.3,11.1c0,0-0.1-1.9-0.1-5.5s0.1-7.2,0.2-10.7s0.2-6.1,0.2-7.9
		c0-1.7,0-4.2,0-7.3s0.1-6.3,0.1-9.3c0.1-3.1,0.1-5.8,0.3-8.2c0.1-2.4,0.3-5.8,0.7-10.4c0.3-4.6,0.7-9.1,1.2-13.6s0.9-8,1.2-10.6
		s0.5-4.4,0.7-5.6s0.3-2.1,0.4-2.8c0.1-0.6,0.5-3.7,1.1-9.2C27.2,81,27.7,76.9,28,74s0.6-5.4,0.8-7.6c0.1-2.2,0.2-4,0.3-5.3
		c0-1.3-0.2-2.9-0.7-4.8c-0.1,0-0.2,0.1-0.1,0.1c-0.1,0.1-0.1,1.7,0,4.7c0,3.1,0.1,5.8,0.2,8.1s0.1,4.1,0.1,5.4c0,1.2,0,2.9-0.1,5
		s-0.2,4.8-0.4,8.1c-0.2,3.3-0.3,6.4-0.4,9.3s-0.2,5.4-0.3,7.3c-0.1,2-0.2,3.5-0.2,4.6s-0.1,4.1-0.4,9.1c-0.2,5-0.5,9.1-0.7,12.4
		s-0.4,5.7-0.5,7.2s-0.2,2.7-0.3,3.7c-0.1,1-0.4,4-0.9,9s-1,9.7-1.3,14c-0.4,4.3-0.6,8.3-0.8,11.8c-0.1,3.6-0.2,6.2-0.3,8
		c0,1.7-0.1,3.5-0.1,5.3s0,3.2,0,4.2s0,1.8,0,2.5s0,2.8-0.1,6.3s-0.1,6.4-0.2,8.8c-0.1,2.4,0,4.7,0.3,7.1c0,0.1,0-1.1,0.1-3.4
		c0-2.3,0.1-4.4,0.1-6.2s0.1-3.4,0-4.6c0-1.2,0-2.4,0-3.5s0-2.1-0.1-2.7c0-0.7-0.1-2.5-0.1-5.6s0-5.8,0.1-8c0.1-2.3,0.3-5,0.5-8.1
		s0.2-6.1,0.1-8.9c0-0.1-0.1,0-0.1,0.1c-0.1,0.1-0.1,0.4-0.2,0.9s-0.1,1.6-0.2,3.3s-0.2,4.1-0.4,7.1c-0.2,3-0.3,6-0.4,9
		s-0.2,5.5-0.2,7.6s0,3.7-0.1,4.8c0,1.1,0,2-0.1,2.7c0,0.7,0,1.7,0.1,3.2c0.1,1.4,0.3,2.8,0.8,4.1c0.3,0.1,0.6-1.1,1-3.7
		c0.4-2.6,0.7-4.7,1-6.5c0.2-1.8,0.5-3.6,0.9-5.4s0.8-4.3,1.4-7.3c-0.1-0.1-0.3,1.7-0.7,5.5c-0.4,3.8-0.7,6.7-0.9,8.9
		s-0.3,3.8-0.3,5.1c0,1.2,0.2,2.3,0.6,3.1c0.3,0,0.6-1.2,0.8-3.6c0.2-2.4,0.3-4.4,0.5-6.1c0.1-1.7,0.2-2.9,0.2-3.8
		c0-0.8,0-1.5-0.2-1.9H26c-0.1,0.2-0.3,1.3-0.6,3.3s-0.4,3.7-0.5,5c0,1.3,0,2.3,0,2.9c0.1,0.6,0.2,1.2,0.4,1.7
		c0.2,0.5,0.4,0.8,0.8,1.1c0.3,0.2,0.6,0.4,0.9,0.5s0.6,0.4,1.2,0.9c0.5,0.5,1,1,1.5,1.4s1.2,0.8,2.2,1c0.9,0.3,2,0.4,3.3,0.4"/>
	<path id="STROKE_4895c8c6-a6e9-4713-8ba4-b78b233bf4a5" class="st2" d="M20.8,204.2c0,0.2,0.1,0.6,0.3,1.3c0.2,0.7,0.3,1.8,0.4,3.2
		s0.2,2.5,0.3,3.3c0.1,0.8,0.1,1.4,0.2,1.7s0.2,0.6,0.2,0.7c0.1,0.2,0.2,0.3,0.5,0.4c0.4,0,1.1-2.4,1.9-7.2c0,0,0,0.2-0.1,0.8
		c0,0.6,0,1,0,1.4c0.1,0.4,0.1,0.7,0.2,0.9s0.2,0.3,0.3,0.4c0.2,0.1,0.3,0.1,0.5,0.1s0.4,0,0.6-0.1c0.3,0,0.6,0,0.9,0.1
		c0.4,0.1,0.8,0.5,1.3,1.2s1,1.4,1.5,2.1c0.5,0.7,0.9,1.4,1.4,2s1.1,1.1,1.8,1.5c0.8,0.4,1.4,0.7,1.8,0.8c0.5,0.1,1.1,0.1,2,0.1
		c0.8,0,2-0.2,3.5-0.6"/>
	<path id="STROKE_2b250546-273d-4104-8cef-ba7804801c62" class="st2" d="M192.2,60.9c0,0.1,0,1.4,0,3.8c0,2.5,0.2,5.1,0.5,7.9
		s0.6,5.2,0.8,7.1s0.3,4.5,0.2,7.9c-0.1,3.3-0.1,6-0.3,8.1c-0.1,2.1,0,3.9,0.3,5.4c0.2,0,0.2-1.4,0-4.4c-0.1-3-0.3-6.3-0.4-9.9
		c-0.1-3.6-0.1-6.3-0.1-8.1c0-1.8,0-3.4,0.1-4.8s0.3-3.2,0.7-5.5s0.9-4.3,1.5-6c0,0,0.1,0,0.3,0.2s0.4,0.9,0.6,2.3
		c0.2,1.3,0.3,2.5,0.3,3.4c0,1,0,1.7-0.1,2.2c0,0.5-0.1,1.9-0.3,4.2c-0.2,2.3-0.4,4.2-0.5,5.7c-0.2,1.5-0.4,3.8-0.8,7
		c-0.3,3.2-0.6,5.8-0.8,7.9s-0.3,3.6-0.4,4.7c-0.1,1.1-0.2,2.6-0.3,4.6s-0.2,3.6-0.3,4.8c-0.1,1.3-0.1,2.3-0.2,3.1
		c0,0.8-0.2,2.6-0.3,5.5s-0.3,5.9-0.3,9s-0.1,5.5-0.1,7.1c0,1.6,0,3-0.1,4.1c0,1.1-0.1,3.1-0.2,5.9c-0.1,2.8-0.2,7.1-0.2,12.8
		c0,0-0.2-0.6-0.4-1.8c-0.2-1.3-0.4-3-0.3-5.2c0-2.2,0.1-4.1,0.2-5.7c0.1-1.6,0.2-2.8,0.2-3.8s0.1-2.1,0.2-3.5
		c0.1-1.3,0.2-3,0.3-4.8c0.1-1.9,0.5-4.7,1.1-8.4c0.2,0.1,0.1,2.8-0.4,8.2c-0.4,5.4-0.8,9.6-1.1,12.7c-0.3,3.1-0.6,5.4-0.8,6.7
		c-0.2,1.4-0.3,2.5-0.5,3.3c-0.1,0.8-0.2,1.5-0.3,2s-0.5,3.7-1.2,9.7s-1.3,11.4-1.9,16.4c-0.6,5-1,8.6-1.3,11s-0.6,4.1-0.8,5.3
		s-0.5,2.8-0.9,5c-0.4,2.1-0.6,4-0.7,5.7l0.3-0.3"/>
	<path id="STROKE_d827c34a-07af-40fc-a07c-81c05cf68f34" class="st2" d="M26.1,206.4c0.1,0.3,0.2,0.5,0.2,0.6s0.2,0.4,0.5,0.9
		s1,1,2,1.6s2.6,1,4.9,1.4s4.9,0.6,8,0.6s5.4,0,7.1-0.1c1.7-0.1,2.9-0.1,3.8-0.2c0.9-0.1,2.6-0.2,5.1-0.5s5.7-0.6,9.6-0.9
		c3.9-0.3,7.4-0.5,10.4-0.5c3.1-0.1,5.3-0.1,6.7-0.1c1.4,0,4.1-0.1,8-0.1s7.1,0,9.8,0.1c2.6,0.1,4.6,0.2,6,0.3s2.8,0.1,4.3,0
		s3.2-0.2,5.1-0.3c1.9,0,4.1,0,6.5,0s4.5,0,6.1-0.1c1.6-0.1,3.6-0.3,5.8-0.6c2.3-0.3,4.4-0.7,6.4-1.2l0.2-0.1"/>
	<path id="STROKE_80e5667e-6f18-4d26-a000-0d9c1434f808" class="st2" d="M16.8,209.2c0.2,0.2,1,0.4,2.4,0.6c1.4,0.3,2.6,0.5,3.7,0.6
		c1,0.1,2.2,0.1,3.6,0.1c1.4-0.1,2.4-0.1,3.2-0.2c0.8,0,2.4,0,4.8,0c2.4,0,4.3,0.1,5.6,0.1c1.3,0.1,3.4,0,6.4-0.2
		c2.9-0.2,5.2-0.3,6.9-0.3s3-0.1,4.1-0.2c1.1-0.1,2.6-0.3,4.6-0.5s4.1-0.3,6.2-0.3s3.9,0,5.4-0.1c1.4,0,3.8-0.1,7.1-0.2
		c3.3-0.1,6-0.2,8-0.2s4.1-0.2,6.2-0.5s4.7-0.4,7.8-0.4c3.1,0,5.4,0,7,0s3.2,0,4.7,0s3.2,0,4.9,0c1.7,0.1,3.3,0.1,4.8,0.2
		c1.5,0.1,3.3-0.1,5.5-0.3c2.2-0.3,4.6-0.5,7.2-0.5c2.6-0.1,4.7-0.1,6.4,0c1.6,0.1,3.5,0.1,5.6,0.2c2.1,0.1,3.9,0.2,5.6,0.4
		c1.7,0.2,3.1,0.3,4.4,0.3c1.2,0,2.8,0,4.8,0c1.9,0,4.4,0,7.4,0.1s5.2,0.2,6.7,0.3s2.7,0.2,3.7,0.4c0.9,0.2,1.6,0.3,2.1,0.4
		c0.5,0.1,0.9,0.2,1.3,0.2c0.4,0,1,0.1,1.8,0.2c0.3-0.2,0.3-0.5-0.2-0.7c-0.4-0.2-1.1-0.4-1.9-0.5c-0.8-0.1-1.9-0.2-3.1-0.4
		c-1.2-0.2-2.4-0.3-3.7-0.4c-1.2-0.1-2.5-0.2-3.9-0.4s-2.7-0.3-4.1-0.4c-1.4-0.1-2.8-0.1-4.3-0.2c-1.5,0-3.5-0.2-6-0.4
		s-5.3-0.4-8.3-0.6c-3.1-0.1-6-0.2-8.9-0.2s-5,0-6.4,0s-3-0.1-4.7-0.3s-3.8-0.2-6.1-0.1c-2.4,0.1-4.3,0.2-5.7,0.2
		c-1.4,0.1-3.2,0-5.4-0.1c-2.1-0.1-5.1-0.2-8.9-0.2s-6.7-0.1-8.7-0.1s-3.5,0-4.5,0.1s-2.7,0.1-5.1,0.1s-4.3,0-5.6,0
		c-1.3,0-2.9,0.1-4.7,0.3c-1.9,0.2-4.3,0.5-7.2,0.7c-3,0.2-5.2,0.4-6.7,0.6c-1.5,0.2-2.9,0.3-4.2,0.2c-1.3,0-2.5,0-3.6,0.1
		s-2.1,0.2-2.9,0.4c-0.9,0.2-1.8,0.3-2.8,0.4c-1,0.1-2.2,0.2-3.5,0.4s-3.1,0.6-5.6,1.1c-0.1,0.1,0.3,0.3,1.2,0.6s1.8,0.5,2.9,0.7
		c1,0.2,2.3,0.4,3.8,0.5s3,0.2,4.2,0.3c1.3,0.1,3,0.1,5.2-0.1c2.2-0.2,3.9-0.3,5.1-0.4c1.2-0.1,2.6-0.2,4.1-0.2s3.7-0.1,6.4-0.2
		c2.8-0.1,5.3-0.2,7.5-0.1c2.3,0.1,4.2,0.1,5.7,0c1.5,0,3.2-0.1,4.9-0.3c1.7-0.1,4.6-0.2,8.6-0.3c4.1-0.1,7.1-0.2,9.2-0.3
		s4.5-0.1,7.2-0.1c2.7,0.1,5.2,0.1,7.4,0c2.2,0,4.3-0.1,6.3-0.1s3.5-0.1,4.5,0c1,0,1.8,0.1,2.5,0.1c0.7,0.1,2.1,0,4.2,0
		c2.2-0.1,3.8-0.2,5-0.3c1.1-0.1,2.2-0.2,3.2-0.3s2.8-0.1,5.4,0c2.6,0.1,4.8,0.1,6.6,0.2c1.8,0.1,3.4,0.1,4.7,0.2s2.5,0.2,3.4,0.3
		c1,0.1,2.2,0.2,3.8,0.2c1.5,0.1,2.7,0.1,3.7,0.2c1,0,1.7,0.1,2.2,0.2c0.5,0.1,1.1,0.1,1.7,0.2c0.6,0.1,1.4,0.1,2.6,0.1
		c1.1,0,2.2,0,3,0.1s1.6,0.2,2.1,0.3s1.1,0.1,1.7,0.1c0.6,0,1.2,0,1.9,0c0.6,0,1.6-0.1,3-0.2c0.2-0.1,0.1-0.4-0.1-1"/>
	<path id="STROKE_f872c976-73a1-4238-8801-62079041b9e6" class="st2" d="M195.6,158.5c0.2,0.3,0.3,2,0.4,5c0.1,3,0.1,5.3,0,7
		c-0.1,1.6-0.1,2.8-0.1,3.6c0,0.7,0,1.7,0,2.7c0,1.1,0.1,2.5,0.3,4.4s0.4,3.6,0.6,5.2s0.4,3,0.6,4.1c0.2,1.1,0.3,2.1,0.4,3
		c0.1,0.8,0.2,2,0.5,3.6s0.5,3.5,0.8,5.7"/>
	<path id="STROKE_564b72ec-0970-4ab5-845d-0f9a7618d1d0" class="st3" d="M7.5,7.3c0,0-0.2,0.1-0.5,0.3C6.7,7.7,6.5,7.9,6.2,8.2
		C5.9,8.4,5.7,8.9,5.4,9.5c-0.3,0.6-0.6,1.7-0.9,3.3s-0.6,3-0.7,4c-0.1,1.1-0.2,2.1-0.2,3.2s0.1,1.9,0.2,2.5
		c0.1,0.6,0.4,1.1,0.8,1.4c0.2-0.1,0.6-4.5,1.3-13.2c0,0.1-0.1,1.4-0.3,3.9c-0.3,2.6-0.5,4.9-0.8,7c-0.2,2.1-0.4,4-0.5,5.7
		c-0.1,1.7-0.1,3.3,0,4.7s0.2,2.7,0.5,3.9c0.2,1.2,0.6,2.1,1,2.7C6,38.6,6,36.7,5.9,33c-0.2-3.7-0.3-6.6-0.4-8.6S5.3,20.9,5.2,20
		c-0.1-0.9-0.1-1.5-0.2-1.8s-0.1-0.5-0.2-0.6c0-0.1-0.1-0.1-0.1-0.1s0,0.1,0,0.3c0,0.2,0,0.3,0,0.5c0,0.1,0,0.7,0.1,1.8
		c0.1,1,0,4.2-0.1,9.4c-0.2,5.2-0.3,9.2-0.5,11.9s-0.3,5.4-0.3,8.1s-0.1,4.7-0.1,6s0,2.5,0.1,3.7C4,60.3,4.1,61.3,4.3,62
		c0.1-0.2,0.1-0.3,0.1-0.3s0-2.2,0.1-6.4c0-4.3,0-7.7,0-10.2s0-4.5,0.1-5.8c0.1-1.4,0-3.8-0.1-7.4c0,0,0,1.1,0.2,3.3
		s0.3,4.1,0.4,5.6s0.2,4.2,0.3,8c0.1,3.8,0.2,6.7,0.3,8.7c0.1,2,0.2,3.6,0.3,4.8c0.1,1.2,0.3,3.2,0.7,6.2c0.3,3,0.6,5.4,0.8,7.2
		c0.2,1.9,0.3,3.2,0.4,3.9C8,80.3,8,80.9,8,81.3c0,0.4,0,0.6,0.1,0.8c0,0-0.2-1.8-0.5-5.3C7.2,73,7,70,6.9,67.4
		c-0.1-2.5-0.2-4.4-0.2-5.6c0-1.2,0-2.2,0-2.9s0-1.4,0-2s0-2.3,0.2-5.1c0,0,0.1,1.7,0.3,5.1c0.2,3.4,0.4,7.9,0.5,13.7
		c0.1,5.9,0.2,10.2,0.3,13c0.1,2.8,0.1,5,0.2,6.4c0.1,1.4,0.2,2.9,0.5,4.4C8.8,95.9,9,97,9.3,97.8c0.2,0.8,0.4,1.4,0.6,1.7
		c0.2,0.3,0.4,0.5,0.5,0.6c0.2,0.1,0.3-0.2,0.3-0.9c0-0.6,0-1.4-0.2-2.4s-0.3-2-0.5-3s-0.4-2.2-0.6-3.5C9.2,89,9,87.1,8.8,84.6
		c-0.2-2.5-0.3-4.5-0.3-5.8s0-2.4,0-3.2c0-0.8,0-2.1,0-4s0.1-3.4,0-4.5c0-1.1-0.1-2.5-0.2-4.2c-0.1-1.6-0.6-3.6-1.4-5.9
		c0,0,0,1.8,0.1,5.4s0.2,6.8,0.2,9.7c0.1,2.9,0.1,5,0,6.3c0,1.4,0,3.4,0.1,6s0.2,4.6,0.3,6c0.1,1.3,0.2,2.9,0.4,4.7
		c0.2,1.8,0.3,3.1,0.5,4c0.1,0.9,0.3,2,0.5,3.3s0.4,2.4,0.6,3.2c0.2,0.8,0.5,1.6,0.9,2.5c0.1,0,0.2-1.1,0.1-3.6
		c-0.1-2.4-0.2-4.5-0.3-6.3s-0.2-3.1-0.2-4S10,92.5,10,91.8c0-0.7,0-2.6,0-5.5s0.2-5.8,0.4-8.6c0.2-2.8,0.4-5,0.5-6.5
		s0.2-2.9,0.2-4.1s-0.1-3.4-0.4-6.4c-0.1,0-0.3,1.4-0.6,4.3c-0.1,2.7-0.3,5-0.5,6.7c-0.1,1.7-0.2,3.3-0.3,4.6
		c-0.1,1.4-0.2,3.1-0.3,5.1S8.9,85,8.8,86.1c0,1.1,0,2.9,0.1,5.6c0.1,2.6,0.2,4.8,0.3,6.5s0.6,5.2,1.3,10.4c0,0-0.1-0.8-0.3-2.4
		s-0.5-3.7-0.7-6.4c-0.2-2.7-0.4-4.7-0.4-6.1s-0.1-3.1,0-5.1c0-2,0.1-3.8,0.1-5.4c0.1-1.6,0.2-3,0.3-4.2s0.3-2.7,0.4-4.4
		s0.2-3.2,0.2-4.5s-0.3-2.9-0.8-5"/>
	<path id="STROKE_cf3aa164-cde4-4228-b2fe-852c4343b246" class="st3" d="M195.8,13c0,0-0.1,0-0.3-0.1c0,0-0.4,3.4-1.2,10.3
		s-1.4,12.3-1.8,16.2c-0.4,3.9-0.6,6.7-0.7,8.5s-0.2,3.2-0.2,4c0,0.9,0.1,2.5,0.3,4.7c0.1,0,0.1-0.8,0.1-2.5c0-1.6,0-3.2,0-4.8
		c0-1.5,0-3.1,0-4.5c0-1.5,0.1-3,0.2-4.7c0.1-1.6,0.3-3.7,0.6-6.2s0.6-4.4,0.8-5.7c0.2-1.3,0.2-2.3,0-3c-0.3,0.1-0.8,3.7-1.6,10.9
		s-1.3,13.2-1.6,17.9s-0.5,8.2-0.5,10.3c-0.1,2.1-0.1,3.9-0.1,5.4s0,2.9,0,4.2c0,1.3,0.1,2.7,0.2,4.4c0.1,1.7,0.2,2.9,0.4,3.8
		c0.1-0.1,0.1-2.4,0.2-7c0-4.6,0.1-8.5,0.3-11.7s0.3-5.7,0.4-7.5c0.1-1.8,0.3-4,0.5-6.5c-0.1,0-0.3,2-0.7,6c-0.3,4-0.6,8.2-0.8,12.4
		s-0.3,7.3-0.4,9.4c0,2.1,0,3.6,0,4.5c0,1,0.1,2.2,0.2,3.8c0.1,1.6,0.2,2.9,0.3,4s0.2,2.1,0.4,3s0.4,1.7,0.6,2.3
		c0.2,0.6,0.5,1.1,0.7,1.5s0.5,0.6,0.9,0.8c0.3-0.1,0.5-1.5,0.5-4c0-2.6,0.2-7.7,0.4-15.4h-0.1c-0.1,0.1-0.2,1.1-0.2,3.1
		c-0.1,2,0,4.1,0.3,6.4s1,5.2,2.2,8.6"/>
	<path id="STROKE_88f38865-ef5e-4a41-8845-96831daa3b3c" class="st2" d="M130.6,70.1c0,0-0.4,0-1.1,0c-0.7,0-1.3,0.1-1.9,0.2
		c-0.6,0.2-1.6,0.9-2.9,2.1s-2.4,2.2-3,3c-0.7,0.8-1.2,1.5-1.7,2.2c-0.4,0.7-1,1.7-1.6,2.9c-0.6,1.2-1.2,2.4-1.9,3.7
		c-0.6,1.3-1.2,2.5-1.8,3.6c-0.6,1.1-1.2,2.5-1.8,4.3c-0.6,1.8-1.1,3.3-1.5,4.6c-0.3,1.3-0.6,3.2-0.9,5.5c-0.2,2.3-0.4,4.3-0.5,5.9
		s0,3.1,0.1,4.5s0.3,2.4,0.4,3.1s0.3,1.3,0.5,1.8s0.5,1.2,1,2.1s1,1.6,1.4,2.2c0.5,0.6,1,1.2,1.7,1.7c0.7,0.6,1.2,0.9,1.6,1.1
		s0.7,0.3,0.9,0.3c0.2,0,0.3,0,0.4-0.1s0-0.4-0.1-1.1c-0.1-0.6-0.4-1.4-0.9-2.3s-0.9-1.7-1.4-2.3c-0.5-0.6-1-1.4-1.6-2.1
		s-1.1-1.9-1.7-3.4s-1-3.1-1.2-4.7s-0.2-3.3-0.1-4.9c0.1-1.7,0.4-3.4,0.9-5.1s1.1-3.2,1.8-4.5c0.7-1.3,1.4-2.6,2-3.8
		c0.7-1.3,1.4-2.3,2-3.2c0.7-0.9,1.2-1.5,1.6-1.9s1.2-1.1,2.5-2.2s2.5-2,3.6-2.8s2.3-1.4,3.5-2c1.2-0.6,2.3-1.1,3.1-1.5
		c0.8-0.5,1.4-0.8,1.6-1.1c0.3-0.3,0.4-0.5,0.6-0.8c0.1-0.2,0.2-0.4,0.2-0.5s0-0.2-0.1-0.4c-0.1-0.2-0.2-0.3-0.3-0.5
		s-0.4-0.4-0.7-0.7c-0.3-0.3-0.7-0.4-1.2-0.5s-1-0.1-1.7,0.1c-0.7,0.1-1.4,0.4-2.2,0.9s-1.9,1.7-3.3,3.7s-2.5,3.6-3.2,4.8
		c-0.8,1.2-1.4,2.5-1.9,3.7s-0.9,2.2-1.1,2.9c-0.2,0.7-0.7,2.2-1.3,4.8c-0.6,2.5-1.1,4.7-1.4,6.6s-0.5,3.6-0.6,5.1s-0.1,2.7-0.1,3.6
		s0.1,1.6,0.1,2.1s0.1,1.1,0.2,1.7c0.1,0.7,0.2,1.4,0.4,2.2c0.2,0.8,0.5,1.4,0.9,1.8c0.1,0,0.5-0.8,1-2.4s1-3,1.4-4.4
		c0.4-1.3,0.8-2.3,1-3s1-2.7,2.3-6.1s2.3-6.1,3-7.9c0.7-1.9,1.5-3.7,2.4-5.4c0.9-1.8,1.8-3.6,2.8-5.4c1-1.9,2-3.9,3.1-6.1
		s1.8-3.7,2.2-4.3c0.4-0.7,0.6-1.4,0.7-2.2c0,0-0.3-0.1-0.9-0.1c-0.6,0-1.7,0.5-3.4,1.6s-2.9,2-3.7,2.6s-1.5,1.2-2,1.6
		s-1.3,1-2.3,1.8s-1.9,1.6-2.8,2.4s-1.6,1.6-2,2.1c-0.5,0.6-1,1.2-1.5,2c-0.5,0.7-1.2,2.1-1.9,4c-0.8,1.9-1.3,3.7-1.7,5.4
		c-0.4,1.7-0.7,3.1-0.8,4.4s-0.3,2.9-0.3,4.6c0,1.8,0.1,3.4,0.3,4.7c0.2,1.4,0.6,3.1,1.2,5.3c0.6,2.2,1.1,3.9,1.5,5.2
		c0.4,1.3,0.7,2.3,1,3s0.4,1.2,0.6,1.4c0.1,0.3,0.2,0.5,0.4,0.9c0.1,0.3,0.4,0.8,0.9,1.5s0.9,1.2,1.3,1.7c0.4,0.4,1.1,1,2.2,1.8
		c1.1,0.7,2.3,1.3,3.8,1.8s2.7,0.8,3.7,1s2.1,0.3,3.2,0.5c1.1,0.2,2.4,0.2,3.9,0.2c1.5-0.1,4.1-1.1,7.9-3.2"/>
	<path id="STROKE_973ce008-994d-4ad8-9b90-4c34b319d0a8" class="st2" d="M125.3,128.3c0.2,0.2,0.5,0.5,1.1,1.1
		c0.6,0.5,1.3,1,2.2,1.3c0.9,0.3,2,0.4,3.3,0.3c1.3-0.1,2.6-0.4,4-0.9s2.6-0.9,3.6-1.3c1-0.4,2.3-0.8,3.8-1.3
		c1.6-0.4,2.9-0.8,3.9-1.1c1.1-0.3,2.5-0.7,4.4-1.2"/>
	<path id="STROKE_290cb0d8-0b40-444d-9291-aa606f8e819c" class="st0" d="M19.8,115.7c0.1,0,0.5-0.3,1.3-0.8s1.4-0.9,1.9-1.3
		c0.4-0.3,0.9-0.6,1.3-0.9c0.5-0.2,0.9-0.6,1.5-0.9c0.5-0.4,1-0.7,1.4-1.1s0.9-0.7,1.6-1.1c0.6-0.4,1.1-0.7,1.5-0.9
		c0.4-0.2,0.9-0.6,1.7-1.1s1.4-1,2-1.3c0.5-0.3,1.2-0.7,2-1.1"/>
	<path id="STROKE_c3fc8797-0f7f-460b-a81b-cc859c5b463b" class="st0" d="M19.1,125.4c0.1,0,0.2,0,0.3,0c0.1,0,0.2,0,0.2,0
		s0.2,0,0.3-0.1c0.1,0,0.3-0.1,0.7-0.2c0.4-0.1,0.8-0.5,1.5-1.1c0.6-0.6,1.2-1.2,1.7-1.6c0.5-0.5,0.9-0.8,1.1-1
		c0.3-0.2,0.9-0.8,1.9-1.6c1-0.9,1.9-1.6,2.5-2.2c0.7-0.6,1.2-1,1.6-1.3s0.8-0.5,1-0.7c0.3-0.1,0.6-0.3,1.1-0.6
		c0.4-0.3,0.8-0.5,1-0.6s0.4-0.3,0.7-0.6c0.2-0.2,0.5-0.6,0.9-1"/>
	<path id="STROKE_e6364293-f749-4ebe-a871-bbb855e77de4" class="st0" d="M102.9,99.1c0.1,0,0.7-0.2,1.8-0.4c1.1-0.2,2.4-0.5,3.9-0.8
		"/>
	<path id="STROKE_966f7212-12e1-4861-96b7-c3537b9ed6fc" class="st0" d="M176.8,105.5c0.1,0,0.9,0.7,2.5,1.9s2.9,2.2,3.7,2.9
		c0.9,0.7,1.7,1.3,2.4,1.8c0.8,0.5,1.3,0.9,1.7,1.2c0.4,0.3,0.7,0.5,0.8,0.5c0.1,0.1,0.4,0.2,0.7,0.4c0.3,0.1,0.7,0.3,1.1,0.6
		c0.4,0.2,0.9,0.5,1.3,0.9"/>
	<path id="STROKE_fa96f118-6d87-40e9-96bd-5d059afe5580" class="st0" d="M176.5,96.3c0.1,0,0.6,0.4,1.6,1.2s1.8,1.4,2.6,2
		s1.4,1.1,1.8,1.4c0.4,0.3,0.8,0.6,1.1,0.8c0.4,0.2,0.8,0.5,1.2,0.9c0.5,0.3,1.2,0.8,2.2,1.5s1.7,1.2,2.2,1.5s0.9,0.6,1.1,0.8
		c0.3,0.2,0.8,0.5,1.6,1s2,1,3.6,1.5"/>
	<path id="STROKE_14b655fa-eda1-44c3-9288-8ec77b8663a0" class="st0" d="M189.9,114.5c0.2,0,1.9,1.1,5.1,3.3"/>
</g>
</svg>
